<svg xmlns="http://www.w3.org/2000/svg" version="1.1" xmlns:xlink="http://www.w3.org/1999/xlink" xmlns:svgjs="http://svgjs.dev/svgjs" width="100%" height="100%" viewBox="0 0 1000 600"><rect width="1000" height="600" x="0" y="0" fill="#cfcfcf"/><g><circle r="166.66666666666666" cx="501.01774088541663" cy="523.2399149675667" fill="#967c52" transform="matrix(0.373858617672365,0,0,0.37385861767236506,0,104.3822544186817)"/><path d="M436.79377518183406 591.1807855253592L420.83142446959727 598.2399478439474Q418.12301117185314 592.851934155882 415.96204311514236 583.1996101692407Q413.7722621510088 573.5472861825992 412.4180555021367 562.972949158428Q411.09266176068746 552.3986121342566 411.09266176068746 544.1004947964874L411.09266176068746 544.1004947964874L431.8379551051107 544.1004947964874Q435.1514394587339 561.7339941392472 445.00545379733495 571.6744472001167Q454.859468135936 581.643713168409 467.911715198469 581.643713168409L467.911715198469 581.643713168409Q474.3658064611784 581.643713168409 477.9962327964525 579.050551500356Q481.62665913172657 576.4573898323031 483.2689948548267 572.7117118673377Q484.9401434853497 568.9948468097953 484.9401434853497 565.6813624561721L484.9401434853497 565.6813624561721Q484.9401434853497 558.8238904895434 480.3588912051229 553.8392575053972Q475.80645183231894 548.854624521251 468.8625411434217 544.8208174820577Q461.9186304545245 540.7870104428642 454.859468135936 537.4447131818183L454.859468135936 537.4447131818183Q436.5920848298744 528.5415247881699 426.0177478057031 517.0163618190459Q415.4434107815318 505.52001175734466 415.4434107815318 488.0882027665446L415.4434107815318 488.0882027665446Q415.4434107815318 475.43933640793097 421.6669987848588 466.62258673655106Q427.8905867881858 457.8058370651712 438.3496721826658 453.02289443298474Q448.8375704845687 448.2399518007982 461.9186304545245 448.2399518007982L461.9186304545245 448.2399518007982Q467.911715198469 448.2399518007982 476.1233938139698 449.5077197274019Q484.30625952204787 450.7466747465827 489.4925828581537 453.65677839628654L489.4925828581537 453.65677839628654L507.1260822009135 448.2399518007982Q510.0361858506173 453.02289443298474 511.18870214752974 460.80237943714343Q512.3124055370192 468.5818644413021 512.6293475186702 476.87998177907144Q512.9462895003212 485.17809911684077 512.9462895003212 492.03557108346956L512.9462895003212 492.03557108346956L512.9462895003212 495.14736508513306L495.7161708614807 495.14736508513306Q491.3654218406364 477.5138657423733 483.4706852067864 471.1750261093551Q475.60476148035923 464.8361864763369 466.47106982732845 464.8361864763369L466.47106982732845 464.8361864763369Q457.97126213759947 464.8361864763369 453.9086421909833 469.73438073821455Q449.87483515178985 474.60376209266946 449.87483515178985 481.8646147632176L449.87483515178985 481.8646147632176Q449.87483515178985 488.4915834704639 453.50526148706393 493.07283575069073Q457.135687822338 497.6252751234947 462.9558951217456 501.0540111068091Q468.74728951373044 504.4827470901235 475.1725678690171 507.7962314437467L475.1725678690171 507.7962314437467Q482.23173018760554 511.10971579736986 489.9247764694959 515.3740260959457Q497.58900984396337 519.6095234870988 504.12953982894123 525.2280404345468Q510.6700698139191 530.817744474572 514.7038768531125 538.4819778490394Q518.737683892306 546.1750241309297 518.737683892306 556.5476708031413L518.737683892306 556.5476708031413Q518.737683892306 567.9575821425742 512.9462895003212 577.379402869833Q507.1260822009135 586.8300365045147 496.35005482478255 592.5349921742311Q485.54521454122875 598.2399478439474 470.21674779229375 598.2399478439474L470.21674779229375 598.2399478439474Q463.1575854737053 598.2399478439474 454.74421650624475 596.6840508431158Q446.35966044620704 595.1281538422841 436.79377518183406 591.1807855253592L436.79377518183406 591.1807855253592ZM586.3903905210641 595.1281538422841L535.9678025311464 595.1281538422841Q531.4153631583424 589.9418305061783 531.4153631583424 581.8454035203686L531.4153631583424 581.8454035203686Q538.2440222175484 581.8454035203686 541.038874237561 579.5691838339667Q543.8625391649964 577.2929641475646 543.8625391649964 571.4727568481569L543.8625391649964 571.4727568481569L543.8625391649964 473.96987812936766Q543.8625391649964 468.1784837373828 541.038874237561 465.7870124212896Q538.2440222175484 463.39554110519634 531.4153631583424 463.39554110519634L531.4153631583424 463.39554110519634Q531.4153631583424 455.5008044713464 535.9678025311464 450.31448113524056L535.9678025311464 450.31448113524056L586.3903905210641 450.31448113524056Q588.4649198555063 452.82120408102503 589.7038748746872 456.3363787866079Q590.9428298938681 459.8803663996135 590.9428298938681 463.39554110519634L590.9428298938681 463.39554110519634Q584.0853579272392 463.39554110519634 581.2905059072266 465.7870124212896Q578.4956538872141 468.1784837373828 578.4956538872141 473.96987812936766L578.4956538872141 473.96987812936766L578.4956538872141 571.4727568481569Q578.4956538872141 577.2929641475646 581.2905059072266 579.5691838339667Q584.0853579272392 581.8454035203686 590.9428298938681 581.8454035203686L590.9428298938681 581.8454035203686Q590.9428298938681 585.5910814853339 589.7038748746872 589.1062561909168Q588.4649198555063 592.6502438039224 586.3903905210641 595.1281538422841L586.3903905210641 595.1281538422841Z " fill="#ffffff" transform="matrix(0.373858617672365,0,0,0.37385861767236506,0,104.3822544186817)"/><path d="M768.1452365449522 554.1347275413546L757.5077561201789 558.8390284512273Q755.7028406690441 555.2483987771611 754.262748553777 548.8159873289678Q752.8034552103063 542.3835758807747 751.9009974847388 535.3367251300674Q751.017740987375 528.2898743793603 751.017740987375 522.7599206567345L751.017740987375 522.7599206567345L764.8426252939396 522.7599206567345Q767.0507665373491 534.5110723173143 773.6175865829673 541.1354960475431Q780.1844066285855 547.7791210059756 788.882563004799 547.7791210059756L788.882563004799 547.7791210059756Q793.1836381223968 547.7791210059756 795.6029928760456 546.051010467655Q798.0223476296944 544.3228999293344 799.1168176372975 541.8267402628715Q800.230488873104 539.3497818246119 800.230488873104 537.1416405812023L800.230488873104 537.1416405812023Q800.230488873104 532.5717482687546 797.1774935887377 529.2499357895383Q794.1436995325749 525.9281233103222 789.5162035355165 523.2399513618235Q784.8887075384581 520.5517794133249 780.1844066285855 518.3244369417116L780.1844066285855 518.3244369417116Q768.0108279475272 512.3912574268111 760.96397719682 504.71076614538634Q753.9171264461129 497.04947609216515 753.9171264461129 485.43273302901025L753.9171264461129 485.43273302901025Q753.9171264461129 477.0033938476466 758.0645917380822 471.1278180173567Q762.2120570300516 465.25224218706677 769.1821028679445 462.0648383052755Q776.171349934041 458.8774344234842 784.8887075384581 458.8774344234842L784.8887075384581 458.8774344234842Q788.882563004799 458.8774344234842 794.3549130428141 459.7222884644409Q799.8080618526257 460.54794127719407 803.2642829292668 462.4872653257538L803.2642829292668 462.4872653257538L815.0154345898467 458.8774344234842Q816.9547586384065 462.0648383052755 817.7228077665488 467.2491699202372Q818.4716556664878 472.4335015351989 818.682869176727 477.9634552578247Q818.8940826869662 483.4934089804505 818.8940826869662 488.0633012928982L818.8940826869662 488.0633012928982L818.8940826869662 490.1370339388829L807.4117482212362 490.1370339388829Q804.5123627624984 478.38588227830303 799.2512262347224 474.1616120735194Q794.0092909351499 469.9373418687358 787.9225015946208 469.9373418687358L787.9225015946208 469.9373418687358Q782.2581392745701 469.9373418687358 779.550766097868 473.2015506633413Q776.8625941493692 476.4465582297433 776.8625941493692 481.2852677370409L776.8625941493692 481.2852677370409Q776.8625941493692 485.7015502238601 779.281948903018 488.75454550822644Q781.7013036566668 491.7883395643892 785.5799517537864 494.07328572061306Q789.4393986227022 496.35823187683695 793.7212725120966 498.56637312024657L793.7212725120966 498.56637312024657Q798.4255734219691 500.7745143636561 803.5523013523202 503.6162961377833Q808.6598280544677 506.4388766837069 813.0185068566763 510.18311618340147Q817.3771856588847 513.9081544548924 820.0653576073835 519.0156811570399Q822.7535295558821 524.1424090873909 822.7535295558821 531.0548512406732L822.7535295558821 531.0548512406732Q822.7535295558821 538.6585376092837 818.8940826869662 544.9373392318485Q815.0154345898467 551.2353420826166 807.8341752417145 555.0371852669219Q800.6337146653789 558.8390284512273 790.4186612610839 558.8390284512273L790.4186612610839 558.8390284512273Q785.7143603512113 558.8390284512273 780.1076017157712 557.8021621282348Q774.5200443085347 556.7652958052424 768.1452365449522 554.1347275413546L768.1452365449522 554.1347275413546ZM864.650609496054 558.5702112563773L864.650609496054 558.5702112563773Q854.8387818840339 558.5702112563773 847.2350955154235 554.3459410515936Q839.631409146813 550.12167084681 835.4071389420294 541.9035451756856Q831.2020699654493 533.6854195045612 831.2020699654493 521.511840823503L831.2020699654493 521.511840823503Q831.2020699654493 508.5126093296916 835.6183524522685 499.66084312784955Q840.0346349390877 490.8282781542111 847.9263397307517 486.2583858417634Q855.798843294212 481.6884935293157 866.0330979267105 481.6884935293157L866.0330979267105 481.6884935293157Q875.9793341361556 481.6884935293157 883.5254168201553 485.98956864691354Q891.0522982759516 490.2714425363078 895.2765684807352 498.62397680485725Q899.4816374573152 506.9957123016102 899.4816374573152 519.3036995800933L899.4816374573152 519.3036995800933Q899.4816374573152 532.1493212482762 895.065354970496 540.9434837655076Q890.6490724836768 549.7184450545353 882.7573676920128 554.1347275413546Q874.8848641285525 558.5702112563773 864.650609496054 558.5702112563773ZM865.7642807318607 548.6047738187287L865.7642807318607 548.6047738187287Q868.6636661905984 548.6047738187287 870.7950025211939 546.531041172744Q872.9455400799927 544.4573085267593 874.11681500041 538.8697511195228Q875.2880899208274 533.2629924840828 875.2880899208274 522.6255120593096L875.2880899208274 522.6255120593096Q875.2880899208274 509.6262805654982 874.0592113157993 502.9250519224551Q872.8111314825678 496.20462205120845 870.4493804135298 493.8620722103739Q868.1068305726951 491.51952236953935 864.919426690904 491.51952236953935L864.919426690904 491.51952236953935Q862.020041232166 491.51952236953935 859.8118999887564 493.593255015524Q857.6037587453469 495.6669876615087 856.4324838249296 501.33134998155947Q855.2420076763087 506.9957123016102 855.2420076763087 517.786802552012L855.2420076763087 517.786802552012Q855.2420076763087 530.6324242201948 856.5668924223545 537.2760491786273Q857.8725759401967 543.900472908856 860.2343270092348 546.2622239778941Q862.5768768500693 548.6047738187287 865.7642807318607 548.6047738187287ZM940.9562903770088 556.7652958052424L910.6951547281953 556.7652958052424Q909.1590564719104 555.1139901797362 908.3334036591573 553.3090747286014Q907.5077508464041 551.5041592774666 907.5077508464041 549.2960180340569L907.5077508464041 549.2960180340569Q911.5208075409485 549.2960180340569 913.3065217638798 547.5679074957363Q915.1114372150146 545.8397969574157 915.1114372150146 541.6923316654465L915.1114372150146 541.6923316654465L915.1114372150146 468.2860362432295Q915.1114372150146 465.0986323614382 913.3065217638798 463.23611322569275Q911.5208075409485 461.37359408994723 905.7028353952693 461.37359408994723L905.7028353952693 461.37359408994723L905.7028353952693 455.8436403673214Q909.1590564719104 453.9043163187617 913.8057536971723 452.46422420349455Q918.4332496942308 451.0049308600239 922.983940778475 450.10247313445643Q927.5538330909227 449.200015408889 930.5876271470854 449.200015408889L930.5876271470854 449.200015408889Q933.7750310288767 449.200015408889 935.2343243723474 450.5825038395455Q936.6744164876145 451.96499227020195 936.6744164876145 455.42121334684305L936.6744164876145 455.42121334684305L936.6744164876145 541.6923316654465Q936.6744164876145 545.9742055548408 938.4025270259351 547.6447124085506Q940.1306375642557 549.2960180340569 944.278102856225 549.2960180340569L944.278102856225 549.2960180340569Q944.278102856225 551.5041592774666 943.3756451306576 553.3090747286014Q942.4923886332938 555.1139901797362 940.9562903770088 556.7652958052424L940.9562903770088 556.7652958052424ZM977.45782519198 557.7253572154207L977.45782519198 557.7253572154207Q967.7804061773847 557.7253572154207 962.3848610521839 551.7921777005199Q957.0085171551866 545.8397969574157 957.0085171551866 535.7591521505458L957.0085171551866 535.7591521505458L957.0085171551866 497.7407203074934Q957.0085171551866 495.3789692384553 955.2036017040517 494.4189078282772Q953.3986862529168 493.43964518989554 950.2304835993292 493.43964518989554L950.2304835993292 493.43964518989554L950.2304835993292 487.37205707757Q952.0161978222604 485.83595882128503 957.7573650551254 484.1078482829645Q963.4985322879904 482.3797377446439 970.6797916361226 482.3797377446439L970.6797916361226 482.3797377446439Q976.0753367613235 482.3797377446439 977.8034472996441 483.6278175778754Q979.5315578379646 484.87589741110696 979.5315578379646 489.7146069184045L979.5315578379646 489.7146069184045L979.5315578379646 536.1623779428206Q979.5315578379646 540.3098432347899 980.9140462686211 542.5179844781997Q982.2965346992776 544.7453269498128 985.7527557759186 544.7453269498128L985.7527557759186 544.7453269498128Q988.6521412346565 544.7453269498128 991.3595144113588 542.940411498678Q994.0476863598574 541.1354960475431 995.8526018109922 538.7929462067086L995.8526018109922 538.7929462067086L995.8526018109922 497.7407203074934Q995.8526018109922 495.3789692384553 993.7788691650074 494.4189078282772Q991.7051365190229 493.43964518989554 988.1145068449567 493.43964518989554L988.1145068449567 493.43964518989554L988.1145068449567 487.37205707757Q990.0346296653129 485.83595882128503 995.7181932135672 484.1078482829645Q1001.382555533618 482.3797377446439 1009.1206504996535 482.3797377446439L1009.1206504996535 482.3797377446439Q1014.5161956248544 482.3797377446439 1016.4555196734141 483.6278175778754Q1018.3756424937702 484.87589741110696 1018.3756424937702 489.7146069184045L1018.3756424937702 489.7146069184045L1018.3756424937702 540.5978616578434Q1018.3756424937702 543.900472908856 1020.1037530320907 546.1278153804692Q1021.8318635704113 548.3359566238789 1025.0192674522027 548.6047738187287L1025.0192674522027 548.6047738187287L1025.0192674522027 552.4834219158482Q1022.811126208793 555.1139901797362 1018.0300203861061 556.4196736975784Q1013.2681157916228 557.7253572154207 1008.8518333048036 557.7253572154207L1008.8518333048036 557.7253572154207Q1004.2819409923559 557.7253572154207 1000.902524828529 555.3060024617719Q997.5039074364985 552.8866477081231 996.4094374288954 548.3359566238789L996.4094374288954 548.3359566238789Q989.6314038730382 557.7253572154207 977.45782519198 557.7253572154207ZM1064.84261474639 558.8390284512273L1064.84261474639 558.8390284512273Q1054.7427687113163 558.8390284512273 1047.0622774298915 554.2691361387795Q1039.4009873766704 549.7184450545353 1035.042308574462 541.2123009603574Q1030.6836297722534 532.7061568661795 1030.6836297722534 520.8205966081748L1030.6836297722534 520.8205966081748Q1030.6836297722534 508.5126093296916 1035.3879306821261 499.7376480406638Q1040.0922315919986 490.96268675163606 1048.2527535785125 486.33519075457764Q1056.3940743368228 481.6884935293157 1066.628328969321 481.6884935293157L1066.628328969321 481.6884935293157Q1077.285010622298 481.6884935293157 1082.8149643449237 486.7384165468524Q1088.3449180675495 491.7883395643892 1088.3449180675495 499.12320873814986L1088.3449180675495 499.12320873814986Q1088.3449180675495 505.7476324683787 1085.0231055883335 509.33826214244476Q1081.7012931091172 512.9480930447144 1076.4401565813414 512.9480930447144L1076.4401565813414 512.9480930447144Q1072.1582826919469 512.9480930447144 1069.2588972332092 509.7606891629231Q1066.3595117744712 506.57328528113186 1066.3595117744712 502.02259419688767L1066.3595117744712 502.02259419688767Q1066.3595117744712 498.7007817176715 1067.5307866948885 496.6270490716868Q1068.7020616153059 494.5533164257021 1070.5069770664406 493.17082799504567L1070.5069770664406 493.17082799504567Q1069.1244886357842 492.3451751822925 1068.2220309102167 492.1339616720533Q1067.3195731846495 491.9227481618141 1066.4939203718961 491.9227481618141L1066.4939203718961 491.9227481618141Q1063.8633521080083 491.9227481618141 1061.0983752466952 493.99648080779883Q1058.3333983853825 496.0702134537835 1056.470879249637 501.33134998155947Q1054.6083601138914 506.57328528113186 1054.6083601138914 515.9818871008772L1054.6083601138914 515.9818871008772Q1054.6083601138914 531.1892598380981 1059.0246426007106 537.3336528632378Q1063.4601263157333 543.4972471165813 1071.4670384766187 543.4972471165813L1071.4670384766187 543.4972471165813Q1075.2112779763133 543.4972471165813 1079.0131211606185 542.3835758807747Q1082.8149643449237 541.2891058731716 1085.4263313806082 539.215373227187L1085.4263313806082 539.215373227187Q1086.5400026164148 540.5978616578434 1087.3080517445574 542.5947893910138Q1088.056899644496 544.5917171241842 1088.056899644496 546.1278153804692L1088.056899644496 546.1278153804692Q1088.056899644496 549.0272008392071 1084.946300675519 552.0033912107592Q1081.8357017065423 554.9603803541077 1076.5937664069697 556.8997044026675Q1071.332629879194 558.8390284512273 1064.84261474639 558.8390284512273ZM1063.7289435105833 598.2399487249361L1063.7289435105833 598.2399487249361Q1056.682092759876 598.2399487249361 1051.7089746551537 596.3774295891906Q1046.7166553222276 594.514910453445 1044.5085140788178 592.4411778074605L1044.5085140788178 592.4411778074605Q1044.5085140788178 590.3674451614756 1045.5453804018102 588.3513162001018Q1046.5822467248026 586.3543884669314 1047.8303265580341 585.2407172311248L1047.8303265580341 585.2407172311248Q1054.4739515164665 589.9450181409975 1061.3863936697487 589.9450181409975L1061.3863936697487 589.9450181409975Q1065.3802491360896 589.9450181409975 1067.1851645872243 588.082499005252Q1068.9900800383593 586.2199798695065 1068.9900800383593 583.16698458514L1068.9900800383593 583.16698458514Q1068.9900800383593 580.4020077238272 1067.6651952923135 578.6162935008958Q1066.3595117744712 576.8113780497611 1062.7688821004053 576.8113780497611L1062.7688821004053 576.8113780497611Q1061.7896194620234 576.8113780497611 1060.6183445416063 576.945786647186Q1059.447069621189 577.0801952446109 1057.5077455726291 577.6370308625142L1057.5077455726291 577.6370308625142L1051.5553648295252 574.7376454037765L1060.6951494544205 549.5840364571104L1070.2189586433872 549.5840364571104L1064.84261474639 569.4765088760005Q1068.1452259974026 568.3820388683976 1072.4463011150003 568.3820388683976L1072.4463011150003 568.3820388683976Q1077.1314007966694 568.3820388683976 1080.1843960810359 570.3213629169572Q1083.2181901371987 572.2414857373133 1084.73508716528 575.2176761088654Q1086.271185421565 578.1938664804175 1086.271185421565 581.2276605365803L1086.271185421565 581.2276605365803Q1086.271185421565 585.2407172311248 1083.6982208422876 589.1769690128549Q1081.1444574912139 593.1324220227887 1076.1713393864914 595.6861853738624Q1071.1982212817688 598.2399487249361 1063.7289435105833 598.2399487249361ZM1128.4370825565868 558.5702112563773L1128.4370825565868 558.5702112563773Q1118.606053716363 558.5702112563773 1111.0023673477526 554.3459410515936Q1103.398680979142 550.12167084681 1099.193612002562 541.9035451756856Q1094.9693417977785 533.6854195045612 1094.9693417977785 521.511840823503L1094.9693417977785 521.511840823503Q1094.9693417977785 508.5126093296916 1099.4048255128014 499.66084312784955Q1103.8211079996204 490.8282781542111 1111.6936115630808 486.2583858417634Q1119.5853163547447 481.6884935293157 1129.8195709872432 481.6884935293157L1129.8195709872432 481.6884935293157Q1139.7658071966882 481.6884935293157 1147.2926886524845 485.98956864691354Q1154.8387713364843 490.2714425363078 1159.0438403130643 498.62397680485725Q1163.268110517848 506.9957123016102 1163.268110517848 519.3036995800933L1163.268110517848 519.3036995800933Q1163.268110517848 532.1493212482762 1158.8518280310286 540.9434837655076Q1154.416344316006 549.7184450545353 1146.5438407525455 554.1347275413546Q1138.6521359608817 558.5702112563773 1128.4370825565868 558.5702112563773ZM1129.5315525641897 548.6047738187287L1129.5315525641897 548.6047738187287Q1132.4309380229276 548.6047738187287 1134.5814755817266 546.531041172744Q1136.7320131405254 544.4573085267593 1137.9032880609427 538.8697511195228Q1139.07456298136 533.2629924840828 1139.07456298136 522.6255120593096L1139.07456298136 522.6255120593096Q1139.07456298136 509.6262805654982 1137.8264831481285 502.9250519224551Q1136.578403314897 496.20462205120845 1134.2358534740624 493.8620722103739Q1131.8933036332278 491.51952236953935 1128.7058997514366 491.51952236953935L1128.7058997514366 491.51952236953935Q1125.806514292699 491.51952236953935 1123.5983730492892 493.593255015524Q1121.371030577676 495.6669876615087 1120.1997556572587 501.33134998155947Q1119.0284807368414 506.9957123016102 1119.0284807368414 517.786802552012L1119.0284807368414 517.786802552012Q1119.0284807368414 530.6324242201948 1120.3341642546836 537.2760491786273Q1121.6590490007293 543.900472908856 1124.001598841564 546.2622239778941Q1126.3633499106022 548.6047738187287 1129.5315525641897 548.6047738187287ZM1138.8057457865102 474.08480716070517L1138.8057457865102 474.08480716070517Q1134.6582804945408 474.08480716070517 1132.238925740892 472.64471504543803Q1129.8195709872432 471.18542170196736 1127.4578199182051 469.39970747903607L1127.4578199182051 469.39970747903607Q1125.5184958696454 467.86360922275117 1123.6559767339 466.76913921514813Q1121.7934575981544 465.6554679793415 1119.5853163547447 465.6554679793415L1119.5853163547447 465.6554679793415Q1117.3771751113352 465.6554679793415 1114.7466068474473 467.037956409998Q1112.1160385835592 468.42044484065445 1109.0822445273964 471.87666591729555L1109.0822445273964 471.87666591729555Q1108.659817506918 472.29909293777393 1107.9685732915898 472.29909293777393L1107.9685732915898 472.29909293777393Q1106.163657840455 472.29909293777393 1104.0323215098597 470.0909516943643Q1101.8817839510607 467.86360922275117 1101.8817839510607 465.3866507844917L1101.8817839510607 465.3866507844917Q1101.8817839510607 464.6954065691634 1102.0161925484856 464.2729795486851L1102.0161925484856 464.2729795486851Q1102.9954551868673 461.37359408994723 1105.4724136251268 458.3974037183952Q1107.9685732915898 455.42121334684305 1111.559202965656 453.4242856136726Q1115.149832639722 451.4273578805022 1119.4509077573198 451.4273578805022L1119.4509077573198 451.4273578805022Q1124.5584344594672 451.4273578805022 1127.3234113207802 453.0018585931943Q1130.0883881820932 454.5955605340899 1132.4309380229276 456.6692931800746L1132.4309380229276 456.6692931800746Q1133.9670362792126 458.05178161073104 1135.5415369919046 458.9542393362985Q1137.1352389328003 459.8566970618659 1138.6521359608817 459.8566970618659L1138.6521359608817 459.8566970618659Q1141.0138870299197 459.8566970618659 1143.5676503809934 458.4742086312094Q1146.1214137320671 457.09172020055297 1149.1744090164336 453.6354991239118L1149.1744090164336 453.6354991239118Q1149.5776348087084 453.2130721034335 1150.2688790240366 453.2130721034335L1150.2688790240366 453.2130721034335Q1152.0737944751713 453.2130721034335 1154.2051308057667 455.42121334684305Q1156.3556683645656 457.64855581845626 1156.3556683645656 460.25992285414065L1156.3556683645656 460.25992285414065Q1156.3556683645656 460.9511670694689 1156.2212597671407 461.2391854925223L1156.2212597671407 461.2391854925223Q1154.8387713364843 464.0041623538352 1152.6306300930746 466.9803527253873Q1150.4032876214615 469.9373418687358 1147.1006763704488 472.0110745147205Q1143.7788638912327 474.08480716070517 1138.8057457865102 474.08480716070517ZM1205.1651904580199 558.013375638474L1205.1651904580199 558.013375638474Q1189.6697992977456 558.013375638474 1180.4724109882395 548.2015480264539Q1171.2942239069368 538.3705191862302 1171.2942239069368 520.8205966081748L1171.2942239069368 520.8205966081748Q1171.2942239069368 508.800627752745 1175.844914991181 500.0064652355137Q1180.4148073036288 491.23150394648593 1188.2297071824783 486.5272030366133Q1196.0254058331245 481.8421033549442 1205.990843270773 481.8421033549442L1205.990843270773 481.8421033549442Q1218.4332391466812 481.8421033549442 1225.9601206024772 489.10016761589054Q1233.506203286477 496.35823187683695 1233.506203286477 509.4918719680732L1233.506203286477 509.4918719680732Q1233.506203286477 514.7338072676456 1231.7780927481567 518.6700590493758Q1230.049982209836 522.6255120593096 1224.654437084635 522.6255120593096L1224.654437084635 522.6255120593096L1194.7965272280965 522.6255120593096Q1195.1997530203712 533.5318096789326 1199.8272490174297 538.1017019913804Q1204.4739462426917 542.6715943038281 1211.9240227856735 542.6715943038281L1211.9240227856735 542.6715943038281Q1216.6283236955464 542.6715943038281 1220.6413803900907 541.2123009603574Q1224.654437084635 539.7530076168866 1228.1106581612762 537.1416405812023L1228.1106581612762 537.1416405812023Q1229.358737994508 538.2361105888053 1230.1075858944469 540.5210567450292Q1230.8756350225892 542.8060029012531 1230.8756350225892 544.3228999293344L1230.8756350225892 544.3228999293344Q1230.8756350225892 546.531041172744 1227.7650360536122 549.7760487391461Q1224.654437084635 553.0402575337515 1218.91326985177 555.517215972011Q1213.1721026189052 558.013375638474 1205.1651904580199 558.013375638474ZM1194.7965272280965 512.1032390037576L1194.7965272280965 512.1032390037576L1208.755820132086 512.1032390037576Q1211.0983699729204 512.1032390037576 1211.732010503638 510.3175247808264Q1212.3464498061521 508.5126093296916 1212.3464498061521 505.8820410658036L1212.3464498061521 505.8820410658036Q1212.3464498061521 497.04947609216515 1210.1959122473531 494.207694318038Q1208.0645759167578 491.36591254391084 1205.1651904580199 491.36591254391084L1205.1651904580199 491.36591254391084Q1202.8034393889818 491.36591254391084 1200.4608895481474 493.17082799504567Q1198.0991384791091 494.9757434461805 1196.5822414510278 499.46883084581395Q1195.0653444229465 503.9619182454474 1194.7965272280965 512.1032390037576ZM1269.0284754630666 558.1477842358989L1269.0284754630666 558.1477842358989Q1264.0553573583443 558.1477842358989 1259.0054343408074 557.0341130000924Q1253.9555113232705 555.9396429924893 1249.7504423466908 553.8659103465047Q1245.526172141907 551.7921777005199 1242.8956038780188 548.6815787315429Q1240.265035614131 545.5709797625659 1240.265035614131 541.5579230680215L1240.265035614131 541.5579230680215Q1240.265035614131 536.7192135607239 1243.030012475444 533.7430231891719Q1245.7949893367568 530.7668328176198 1250.0960644543547 530.7668328176198L1250.0960644543547 530.7668328176198Q1253.9555113232705 530.7668328176198 1256.6628844999727 533.2629924840828Q1259.3510564484714 535.7591521505458 1259.3510564484714 539.7530076168866L1259.3510564484714 539.7530076168866Q1259.3510564484714 541.5579230680215 1258.794220830568 542.8636065858636Q1258.2373852126648 544.1884913319095 1257.1429152050619 545.7053883599908L1257.1429152050619 545.7053883599908Q1258.3909950382936 546.9534681932224 1261.559197691881 547.5103038111257Q1264.7466015736723 548.0479382008255 1267.780395629835 548.0479382008255L1267.780395629835 548.0479382008255Q1272.6191051371327 548.0479382008255 1275.2496734010206 546.2622239778941Q1277.8802416649087 544.4573085267593 1277.8802416649087 541.8267402628715L1277.8802416649087 541.8267402628715Q1277.8802416649087 537.679274970902 1273.444757949886 534.7222858275535Q1269.0284754630666 531.7460954560014 1263.3641131430159 528.693100171635L1263.3641131430159 528.693100171635Q1258.2373852126648 525.9281233103222 1253.2066634233315 522.8175243413452Q1248.1567404057948 519.7069253723681 1244.7581230137644 515.0218256906991Q1241.3787068499375 510.3175247808264 1241.3787068499375 503.1170642044907L1241.3787068499375 503.1170642044907Q1241.3787068499375 493.99648080779883 1248.9823932185482 488.0633012928982Q1256.5860795871586 482.110920549794 1270.545372491148 482.110920549794L1270.545372491148 482.110920549794Q1280.222791505743 482.110920549794 1286.0407636514224 484.5302753034428Q1291.8395345688982 486.9496300570916 1294.470102832786 490.6170646439719Q1297.100671096674 494.28449923085225 1297.100671096674 498.2783546971931L1297.100671096674 498.2783546971931Q1297.100671096674 502.57942981479096 1294.3932979199717 505.1331931658647Q1291.705125971473 507.68695651693844 1287.8264778743537 507.68695651693844L1287.8264778743537 507.68695651693844Q1284.3702567977125 507.68695651693844 1281.7396885338244 505.5364189581395Q1279.1283214981402 503.4050826275441 1279.1283214981402 499.948861550903L1279.1283214981402 499.948861550903Q1279.1283214981402 498.2783546971931 1279.66595588784 496.35823187683695Q1280.222791505743 494.4189078282772 1281.2020541441248 493.17082799504567L1281.2020541441248 493.17082799504567Q1279.66595588784 491.9227481618141 1277.6690281546694 491.4427174567251Q1275.6721004214992 490.96268675163606 1272.9071235601862 490.96268675163606L1272.9071235601862 490.96268675163606Q1268.3372312477384 490.96268675163606 1265.9178764940896 493.09402308223144Q1263.498521740441 495.2445606410303 1263.498521740441 498.2783546971931L1263.498521740441 498.2783546971931Q1263.498521740441 502.98265560706574 1267.9916091400744 506.0356508914321Q1272.4846965397078 509.0694449475949 1278.0146502623336 511.9688304063327L1278.0146502623336 511.9688304063327Q1283.122176964481 514.5993986702207 1288.037691384593 517.6331927263834Q1292.9532058047048 520.6861880107498 1296.2558170557172 525.236879094994Q1299.5776295349337 529.8067714074416 1299.5776295349337 536.9880307555738L1299.5776295349337 536.9880307555738Q1299.5776295349337 544.7453269498128 1295.1613470481143 549.3728229468711Q1290.7258633330916 554.0003189439296 1283.7558174951987 556.0740515899142Q1276.766570429102 558.1477842358989 1269.0284754630666 558.1477842358989ZM1369.6813137061379 556.7652958052424L1336.0791643499047 556.7652958052424Q1333.0453702937418 553.3090747286014 1333.0453702937418 547.9135296034005L1333.0453702937418 547.9135296034005Q1337.596061377986 547.9135296034005 1339.4585805137315 546.396632575319Q1341.3403008776804 544.8797355472377 1341.3403008776804 541.0010874501182L1341.3403008776804 541.0010874501182L1341.3403008776804 476.0241312092649Q1341.3403008776804 472.16468434034897 1339.4585805137315 470.5709823994534Q1337.596061377986 468.97728045855774 1333.0453702937418 468.97728045855774L1333.0453702937418 468.97728045855774Q1333.0453702937418 463.7161439307818 1336.0791643499047 460.25992285414065L1336.0791643499047 460.25992285414065L1369.6813137061379 460.25992285414065Q1371.0638021367943 461.9304297078505 1371.8894549495476 464.2729795486851Q1372.7151077623007 466.63473061772316 1372.7151077623007 468.97728045855774L1372.7151077623007 468.97728045855774Q1368.145215449853 468.97728045855774 1366.2826963141074 470.5709823994534Q1364.4201771783619 472.16468434034897 1364.4201771783619 476.0241312092649L1364.4201771783619 476.0241312092649L1364.4201771783619 541.0010874501182Q1364.4201771783619 544.8797355472377 1366.2826963141074 546.396632575319Q1368.145215449853 547.9135296034005 1372.7151077623007 547.9135296034005L1372.7151077623007 547.9135296034005Q1372.7151077623007 550.4096892698635 1371.8894549495476 552.7522391106982Q1371.0638021367943 555.1139901797362 1369.6813137061379 556.7652958052424L1369.6813137061379 556.7652958052424ZM1415.7066577100754 556.7652958052424L1384.3318508254556 556.7652958052424Q1382.814953797374 555.2483987771611 1381.9124960718068 553.4434833260264Q1381.0100383462393 551.657769103095 1381.0100383462393 549.4304266314819L1381.0100383462393 549.4304266314819Q1385.1575036382087 549.4304266314819 1386.9624190893435 547.6447124085506Q1388.7481333122748 545.8397969574157 1388.7481333122748 541.8267402628715L1388.7481333122748 541.8267402628715L1388.7481333122748 501.4657585789844Q1388.7481333122748 497.8751289049183 1386.7512055791044 496.20462205120845Q1384.73507661773 494.5533164257021 1379.493141318158 494.5533164257021L1379.493141318158 494.5533164257021L1379.493141318158 488.33211848774806Q1382.6613439717457 486.5272030366133 1387.5768583918575 485.01030600853187Q1392.4923728119693 483.4934089804505 1397.1198688090278 482.59095125488307Q1401.7473648060861 481.6884935293157 1404.2435244725493 481.6884935293157L1404.2435244725493 481.6884935293157Q1407.142909931287 481.6884935293157 1409.0054290670325 483.4934089804505Q1410.867948202778 485.2983244315853 1411.1559666258315 491.23150394648593L1411.1559666258315 491.23150394648593Q1414.6121877024725 486.9496300570916 1419.9309279148592 484.3190617932037Q1425.249668127246 481.6884935293157 1432.296518877953 481.6884935293157L1432.296518877953 481.6884935293157Q1441.9739378925483 481.6884935293157 1446.88945231266 486.6040079494275Q1451.7857655045682 491.51952236953935 1451.7857655045682 503.2706740301192L1451.7857655045682 503.2706740301192L1451.7857655045682 541.0010874501182Q1451.7857655045682 547.7791210059756 1458.4293904630008 549.0272008392071L1458.4293904630008 549.0272008392071L1458.5637990604257 553.0402575337515Q1457.181310629769 554.422745964408 1454.1475165736065 555.4596122874003Q1451.0945212892402 556.4964786103926 1447.5806965279883 557.0341130000924Q1444.0476705385329 557.5909486179957 1441.01387648237 557.5909486179957L1441.01387648237 557.5909486179957Q1435.0614957392659 557.5909486179957 1432.2389151933426 555.382807374586Q1429.3971334192152 553.1746661311764 1429.3971334192152 548.3359566238789L1429.3971334192152 548.3359566238789L1429.3971334192152 505.19079685047535Q1429.3971334192152 499.52643453042464 1426.9009737527522 497.318293287015Q1424.4240153144929 495.1101520436054 1420.8333856404265 495.1101520436054L1420.8333856404265 495.1101520436054Q1415.1498220921724 495.1101520436054 1411.2903752232564 499.66084312784955L1411.2903752232564 499.66084312784955L1411.2903752232564 541.8267402628715Q1411.2903752232564 545.8397969574157 1413.0184857615768 547.6447124085506Q1414.7465962998974 549.4304266314819 1418.8940615918668 549.4304266314819L1418.8940615918668 549.4304266314819Q1418.8940615918668 553.5778919234513 1415.7066577100754 556.7652958052424L1415.7066577100754 556.7652958052424ZM1498.6559635494627 558.5702112563773L1498.6559635494627 558.5702112563773Q1488.8441359374426 558.5702112563773 1481.2404495688322 554.3459410515936Q1473.6367632002216 550.12167084681 1469.412492995438 541.9035451756856Q1465.207424018858 533.6854195045612 1465.207424018858 521.511840823503L1465.207424018858 521.511840823503Q1465.207424018858 508.5126093296916 1469.6237065056773 499.66084312784955Q1474.0591902207002 490.8282781542111 1481.9316937841604 486.2583858417634Q1489.8041973476209 481.6884935293157 1500.0384519801191 481.6884935293157L1500.0384519801191 481.6884935293157Q1510.0038894177678 481.6884935293157 1517.530770873564 485.98956864691354Q1525.0576523293603 490.2714425363078 1529.2819225341439 498.62397680485725Q1533.5061927389274 506.9957123016102 1533.5061927389274 519.3036995800933L1533.5061927389274 519.3036995800933Q1533.5061927389274 532.1493212482762 1529.0707090239048 540.9434837655076Q1524.6544265370853 549.7184450545353 1516.7627217454215 554.1347275413546Q1508.8902181819612 558.5702112563773 1498.6559635494627 558.5702112563773ZM1499.7696347852693 548.6047738187287L1499.7696347852693 548.6047738187287Q1502.6690202440072 548.6047738187287 1504.8195578028062 546.531041172744Q1506.9508941334016 544.4573085267593 1508.1221690538187 538.8697511195228Q1509.3126452024396 533.2629924840828 1509.3126452024396 522.6255120593096L1509.3126452024396 522.6255120593096Q1509.3126452024396 509.6262805654982 1508.0645653692081 502.9250519224551Q1506.8164855359767 496.20462205120845 1504.473935695142 493.8620722103739Q1502.112184626104 491.51952236953935 1498.9439819725162 491.51952236953935L1498.9439819725162 491.51952236953935Q1496.0253952855749 491.51952236953935 1493.8172540421651 493.593255015524Q1491.6091127987556 495.6669876615087 1490.4378378783383 501.33134998155947Q1489.266562957921 506.9957123016102 1489.266562957921 517.786802552012L1489.266562957921 517.786802552012Q1489.266562957921 530.6324242201948 1490.5722464757632 537.2760491786273Q1491.8779299936054 543.900472908856 1494.2396810626435 546.2622239778941Q1496.5822309034781 548.6047738187287 1499.7696347852693 548.6047738187287ZM1577.745822519934 557.7253572154207L1563.3641025954662 557.7253572154207L1541.5131048998128 498.8351903150964Q1540.1306164691564 495.1101520436054 1538.613719441075 493.38204150528486Q1537.0968224129936 491.6539309669643 1533.5061927389274 491.6539309669643L1533.5061927389274 491.6539309669643Q1533.5061927389274 489.44578972355464 1534.1974369542559 487.1608435673308Q1534.888681169584 484.87589741110696 1536.4055781976654 483.35900038302555L1536.4055781976654 483.35900038302555L1567.9147936797103 483.35900038302555Q1569.4508919359955 484.87589741110696 1570.2765447487484 487.1608435673308Q1571.1021975615017 489.44578972355464 1571.1021975615017 491.6539309669643L1571.1021975615017 491.6539309669643Q1568.337220700189 491.6539309669643 1566.4747015644434 493.17082799504567Q1564.612182428698 494.68772502312703 1564.612182428698 497.8751289049183L1564.612182428698 497.8751289049183Q1564.612182428698 498.4319645228216 1564.8041947107336 499.25761733557476Q1565.0154082209726 500.0832701483279 1565.1498168183975 500.7745143636561L1565.1498168183975 500.7745143636561L1570.833380366652 519.5725167749432L1577.1889869020306 543.7660643114311L1583.5445934374097 519.5725167749432L1588.9401385626106 500.7745143636561Q1589.2089557574604 499.948861550903 1589.3433643548856 499.0464038253356Q1589.496974180514 498.1439460997682 1589.496974180514 497.45270188443993L1589.496974180514 497.45270188443993Q1589.496974180514 494.5533164257021 1587.5576501319542 493.09402308223144Q1585.6183260833945 491.6539309669643 1582.2965136041782 491.6539309669643L1582.2965136041782 491.6539309669643Q1582.2965136041782 489.44578972355464 1582.8533492220815 487.1608435673308Q1583.410184839985 484.87589741110696 1584.9270818680661 483.35900038302555L1584.9270818680661 483.35900038302555L1611.751197668442 483.35900038302555Q1613.2680946965236 484.87589741110696 1613.8825339990376 487.1608435673308Q1614.516174529755 489.44578972355464 1614.516174529755 491.6539309669643L1614.516174529755 491.6539309669643Q1610.925544855689 491.6539309669643 1609.1974343173683 493.38204150528486Q1607.4693237790477 495.1101520436054 1606.2212439458162 498.8351903150964L1606.2212439458162 498.8351903150964L1591.8395240213486 542.940411498678Q1589.631382777939 550.5440978672884 1586.7896010038116 554.1347275413546Q1583.967020457888 557.7253572154207 1577.745822519934 557.7253572154207L1577.745822519934 557.7253572154207ZM1636.7703980176832 557.7253572154207L1636.7703980176832 557.7253572154207Q1626.4017347877598 557.7253572154207 1619.9693233395667 552.0033912107592Q1613.5369118913734 546.2622239778941 1613.5369118913734 537.2760491786273L1613.5369118913734 537.2760491786273Q1613.5369118913734 528.2898743793603 1619.4124877216632 522.7599206567345Q1625.2880635519532 517.2299669341087 1637.5960508304365 517.2299669341087L1637.5960508304365 517.2299669341087Q1641.6091075249808 517.2299669341087 1646.0253900118 517.9788148340476Q1650.4608737268227 518.74686396219 1653.2258505881357 520.2637609902714L1653.2258505881357 520.2637609902714L1653.2258505881357 501.88818559946276Q1653.2258505881357 496.0702134537835 1650.2496602165836 493.78526729755964Q1647.2734698450317 491.51952236953935 1642.9915959556372 491.51952236953935L1642.9915959556372 491.51952236953935Q1638.4217036431896 491.51952236953935 1635.5223181844517 493.72766361294896L1635.5223181844517 493.72766361294896Q1638.2872950457645 494.68772502312703 1639.5353748789962 496.70385398450105Q1640.7834547122275 498.7007817176715 1640.7834547122275 501.043331558506L1640.7834547122275 501.043331558506Q1640.7834547122275 505.61322387095373 1637.5384471458256 508.3013958194524Q1634.2742383512202 511.00876899615463 1629.5891386695512 511.00876899615463L1629.5891386695512 511.00876899615463Q1624.3280021417752 511.00876899615463 1621.1405982599838 507.8981700271776Q1617.972395606396 504.78757105820057 1617.972395606396 500.0832701483279L1617.972395606396 500.0832701483279Q1617.972395606396 495.3789692384553 1621.1405982599838 491.17390026187525Q1624.3280021417752 486.9496300570916 1631.029230784818 484.1846531957787Q1637.7304594278614 481.4196763344658 1648.387141080838 481.4196763344658L1648.387141080838 481.4196763344658Q1676.1713182913923 481.4196763344658 1676.1713182913923 503.4050826275441L1676.1713182913923 503.4050826275441L1676.1713182913923 540.0410260399401Q1676.1713182913923 546.6654497701691 1682.5269248267712 548.0479382008255L1682.5269248267712 548.0479382008255L1682.5269248267712 552.4834219158482Q1680.7412106038398 555.1139901797362 1676.440135486242 556.4196736975784Q1672.1582615968478 557.7253572154207 1668.1452049023032 557.7253572154207L1668.1452049023032 557.7253572154207Q1658.7558043107615 557.7253572154207 1654.8771562136421 551.2353420826166L1654.8771562136421 551.2353420826166Q1652.1121793523291 553.7315017490798 1647.5614882680848 555.7284294822502Q1642.9915959556372 557.7253572154207 1636.7703980176832 557.7253572154207ZM1645.7565728169502 546.531041172744L1645.7565728169502 546.531041172744Q1647.69589686551 546.531041172744 1649.7696295114947 545.9166018702301Q1651.843362157479 545.2829613395124 1653.2258505881357 544.3228999293344L1653.2258505881357 544.3228999293344L1653.2258505881357 530.9204426432482Q1651.843362157479 529.9411800048666 1649.6928245986803 529.2499357895383Q1647.5614882680848 528.5586915742101 1645.4877556221004 528.5586915742101L1645.4877556221004 528.5586915742101Q1641.8779247198308 528.5586915742101 1639.2665576841464 530.843637730434Q1636.6359894202583 533.1285838866579 1636.6359894202583 537.9672933939555L1636.6359894202583 537.9672933939555Q1636.6359894202583 541.6923316654465 1639.1129478585178 544.1116864190952Q1641.6091075249808 546.531041172744 1645.7565728169502 546.531041172744ZM1717.2235441906073 558.5702112563773L1717.2235441906073 558.5702112563773Q1709.7734676476255 558.5702112563773 1703.2066476020073 554.768368072072Q1696.6398275563888 550.9665248877668 1692.6267708618445 543.2092286935278Q1688.6137141673003 535.4711337274923 1688.6137141673003 523.7199820669125L1688.6137141673003 523.7199820669125Q1688.6137141673003 509.7606891629231 1693.7980457822619 500.5056971688063Q1698.9823773972237 491.23150394648593 1707.3541128939764 486.68081286224174Q1715.706647162526 482.110920549794 1725.2496575796963 482.110920549794L1725.2496575796963 482.110920549794Q1727.054573030831 482.110920549794 1729.2627142742406 482.24532914721897Q1731.4708555176503 482.3797377446439 1733.67899676106 482.66775616769735L1733.67899676106 482.66775616769735L1733.275770968785 474.3728255837586L1733.275770968785 467.4603834304764Q1733.275770968785 464.2729795486851 1731.4708555176503 462.4872653257538Q1729.6659400665155 460.682349874619 1724.0015777464646 460.682349874619L1724.0015777464646 460.682349874619L1724.0015777464646 455.01798755456826Q1727.457798823106 453.0786635060085 1732.1620997329785 451.56176647792716Q1736.8664006428512 450.04486944984575 1741.4170917270953 449.14241172427836Q1745.9869840395431 448.2399539987109 1748.751960900856 448.2399539987109L1748.751960900856 448.2399539987109Q1751.9393647826473 448.2399539987109 1753.3794568979142 449.69924734218165Q1754.8387502413852 451.1393394574488 1754.8387502413852 454.5955605340899L1754.8387502413852 454.5955605340899L1754.8387502413852 541.4235144705965Q1754.8387502413852 548.2015480264539 1761.4631739716137 549.4304266314819L1761.4631739716137 549.4304266314819L1761.6167837972425 553.3090747286014Q1759.6774597486824 555.9396429924893 1755.6644030541381 557.2453265103316Q1751.6513463595938 558.5702112563773 1747.5038810676242 558.5702112563773L1747.5038810676242 558.5702112563773Q1743.9132513935583 558.5702112563773 1739.9001946990138 556.9765093154817Q1735.8871380044695 555.382807374586 1734.235832378963 552.0609948953698L1734.235832378963 552.0609948953698Q1731.3364469202252 555.9396429924893 1727.1121767154418 557.2453265103316Q1722.9071077388617 558.5702112563773 1717.2235441906073 558.5702112563773ZM1726.7665546077778 546.8190595957974L1726.7665546077778 546.8190595957974Q1731.0484284971722 546.8190595957974 1733.275770968785 544.3228999293344L1733.275770968785 544.3228999293344L1733.275770968785 495.9358048563586Q1730.3571842818437 491.9227481618141 1725.5184747745461 491.9227481618141L1725.5184747745461 491.9227481618141Q1721.793436503055 491.9227481618141 1718.7596424468923 494.4765115128879Q1715.706647162526 497.04947609216515 1713.9209329395946 502.9250519224551Q1712.1160174884599 508.800627752745 1712.1160174884599 518.8812725596149L1712.1160174884599 518.8812725596149Q1712.1160174884599 533.1285838866579 1716.3402876932435 539.9642211271259Q1720.5453566698234 546.8190595957974 1726.7665546077778 546.8190595957974ZM1800.460868453048 558.5702112563773L1800.460868453048 558.5702112563773Q1790.6490408410282 558.5702112563773 1783.0453544724173 554.3459410515936Q1775.441668103807 550.12167084681 1771.2173978990231 541.9035451756856Q1766.9931276942393 533.6854195045612 1766.9931276942393 521.511840823503L1766.9931276942393 521.511840823503Q1766.9931276942393 508.5126093296916 1771.4286114092624 499.66084312784955Q1775.8448938960814 490.8282781542111 1783.7365986877458 486.2583858417634Q1791.609102251206 481.6884935293157 1801.8433568837045 481.6884935293157L1801.8433568837045 481.6884935293157Q1811.7895930931495 481.6884935293157 1819.3356757771494 485.98956864691354Q1826.8625572329456 490.2714425363078 1831.086827437729 498.62397680485725Q1835.2918964143091 506.9957123016102 1835.2918964143091 519.3036995800933L1835.2918964143091 519.3036995800933Q1835.2918964143091 532.1493212482762 1830.8756139274897 540.9434837655076Q1826.440130212467 549.7184450545353 1818.5676266490068 554.1347275413546Q1810.6951230855461 558.5702112563773 1800.460868453048 558.5702112563773ZM1801.555338460651 548.6047738187287L1801.555338460651 548.6047738187287Q1804.4739251475921 548.6047738187287 1806.605261478188 546.531041172744Q1808.7557990369864 544.4573085267593 1809.927073957404 538.8697511195228Q1811.098348877821 533.2629924840828 1811.098348877821 522.6255120593096L1811.098348877821 522.6255120593096Q1811.098348877821 509.6262805654982 1809.8502690445898 502.9250519224551Q1808.6213904395618 496.20462205120845 1806.259639370524 493.8620722103739Q1803.9170895296888 491.51952236953935 1800.729685647898 491.51952236953935L1800.729685647898 491.51952236953935Q1797.83030018916 491.51952236953935 1795.6221589457505 493.593255015524Q1793.4140177023405 495.6669876615087 1792.2235415537198 501.33134998155947Q1791.0522666333027 506.9957123016102 1791.0522666333027 517.786802552012L1791.0522666333027 517.786802552012Q1791.0522666333027 530.6324242201948 1792.3771513793486 537.2760491786273Q1793.6828348971908 543.900472908856 1796.025384738025 546.2622239778941Q1798.3871358070633 548.6047738187287 1801.555338460651 548.6047738187287ZM1883.122155869382 556.7652958052424L1846.217395262136 556.7652958052424Q1844.7004982340545 555.2483987771611 1843.8748454213014 553.4434833260264Q1843.0299913803447 551.657769103095 1843.0299913803447 549.2960180340569L1843.0299913803447 549.2960180340569Q1847.0430480748892 549.2960180340569 1848.7711586132095 547.5679074957363Q1850.49926915153 545.8397969574157 1850.49926915153 541.6923316654465L1850.49926915153 541.6923316654465L1850.49926915153 501.73457577383425Q1850.49926915153 498.1439460997682 1848.5599451029702 496.55024415887254Q1846.6398222826142 494.9757434461805 1841.378685754838 494.9757434461805L1841.378685754838 494.9757434461805L1841.378685754838 488.75454550822644Q1844.7004982340545 486.8152214596667 1849.2511893182987 485.355928116196Q1853.8210816307464 483.91583600092883 1858.2373641175654 483.01337827536145Q1862.6728478325886 482.110920549794 1865.1498062708479 482.110920549794L1865.1498062708479 482.110920549794Q1868.3372101526393 482.110920549794 1869.7965034961098 484.3190617932037Q1871.2365956113772 486.5272030366133 1871.2365956113772 493.8620722103739L1871.2365956113772 493.8620722103739Q1872.7534926394583 490.96268675163606 1875.7296830110104 488.12090497750887Q1878.7058733825625 485.2983244315853 1882.4309116540535 483.4934089804505Q1886.1751511537482 481.6884935293157 1890.1882078482927 481.6884935293157L1890.1882078482927 481.6884935293157Q1896.6782229810965 481.6884935293157 1899.4431998424093 485.01030600853187Q1902.2081767037225 488.33211848774806 1902.2081767037225 493.593255015524L1902.2081767037225 493.593255015524Q1902.2081767037225 499.52643453042464 1899.1743826475595 503.2706740301192Q1896.1213873631932 506.9957123016102 1890.7258422379923 506.9957123016102L1890.7258422379923 506.9957123016102Q1886.040742556323 506.9957123016102 1883.2757656950103 504.3075403531115Q1880.5107888336975 501.60016717640934 1880.5107888336975 498.1439460997682L1880.5107888336975 498.1439460997682Q1880.5107888336975 495.9358048563586 1880.9140146259724 494.68772502312703L1880.9140146259724 494.68772502312703Q1878.7058733825625 495.2445606410303 1876.6321407365776 496.14701836659776Q1874.5584080905928 497.04947609216515 1872.4846754446085 498.96959891252135L1872.4846754446085 498.96959891252135L1872.4846754446085 540.444251832215Q1872.4846754446085 543.6316557140062 1873.4447368547867 545.5709797625659Q1874.4239994931681 547.5103038111257 1877.246580039092 548.3935603084896Q1880.0883618132189 549.2960180340569 1885.7527241332696 549.2960180340569L1885.7527241332696 549.2960180340569Q1885.7527241332696 551.657769103095 1885.1958885153663 553.4434833260264Q1884.6582541256666 555.2483987771611 1883.122155869382 556.7652958052424L1883.122155869382 556.7652958052424ZM1927.7842126708665 557.7253572154207L1927.7842126708665 557.7253572154207Q1917.4155494409433 557.7253572154207 1910.98313799275 552.0033912107592Q1904.5507265445567 546.2622239778941 1904.5507265445567 537.2760491786273L1904.5507265445567 537.2760491786273Q1904.5507265445567 528.2898743793603 1910.4263023748467 522.7599206567345Q1916.3018782051367 517.2299669341087 1928.60986548362 517.2299669341087L1928.60986548362 517.2299669341087Q1932.6229221781641 517.2299669341087 1937.0392046649836 517.9788148340476Q1941.4746883800062 518.74686396219 1944.239665241319 520.2637609902714L1944.239665241319 520.2637609902714L1944.239665241319 501.88818559946276Q1944.239665241319 496.0702134537835 1941.263474869767 493.78526729755964Q1938.2872844982148 491.51952236953935 1934.0054106088205 491.51952236953935L1934.0054106088205 491.51952236953935Q1929.4355182963727 491.51952236953935 1926.5361328376353 493.72766361294896L1926.5361328376353 493.72766361294896Q1929.301109698948 494.68772502312703 1930.5491895321798 496.70385398450105Q1931.797269365411 498.7007817176715 1931.797269365411 501.043331558506L1931.797269365411 501.043331558506Q1931.797269365411 505.61322387095373 1928.552261799009 508.3013958194524Q1925.2880530044035 511.00876899615463 1920.6029533227343 511.00876899615463L1920.6029533227343 511.00876899615463Q1915.3418167949585 511.00876899615463 1912.154412913167 507.8981700271776Q1908.9862102595798 504.78757105820057 1908.9862102595798 500.0832701483279L1908.9862102595798 500.0832701483279Q1908.9862102595798 495.3789692384553 1912.154412913167 491.17390026187525Q1915.3418167949585 486.9496300570916 1922.0430454380016 484.1846531957787Q1928.7442740810448 481.4196763344658 1939.4009557340214 481.4196763344658L1939.4009557340214 481.4196763344658Q1967.1851329445753 481.4196763344658 1967.1851329445753 503.4050826275441L1967.1851329445753 503.4050826275441L1967.1851329445753 540.0410260399401Q1967.1851329445753 546.6654497701691 1973.5407394799545 548.0479382008255L1973.5407394799545 548.0479382008255L1973.5407394799545 552.4834219158482Q1971.7550252570231 555.1139901797362 1967.4539501394256 556.4196736975784Q1963.1720762500313 557.7253572154207 1959.1590195554868 557.7253572154207L1959.1590195554868 557.7253572154207Q1949.769618963945 557.7253572154207 1945.8909708668257 551.2353420826166L1945.8909708668257 551.2353420826166Q1943.1259940055124 553.7315017490798 1938.5753029212683 555.7284294822502Q1934.0054106088205 557.7253572154207 1927.7842126708665 557.7253572154207ZM1936.7703874701338 546.531041172744L1936.7703874701338 546.531041172744Q1938.7097115186934 546.531041172744 1940.7834441646778 545.9166018702301Q1942.8571768106626 545.2829613395124 1944.239665241319 544.3228999293344L1944.239665241319 544.3228999293344L1944.239665241319 530.9204426432482Q1942.8571768106626 529.9411800048666 1940.7066392518636 529.2499357895383Q1938.5753029212683 528.5586915742101 1936.501570275284 528.5586915742101L1936.501570275284 528.5586915742101Q1932.8917393730144 528.5586915742101 1930.28037233733 530.843637730434Q1927.6498040734418 533.1285838866579 1927.6498040734418 537.9672933939555L1927.6498040734418 537.9672933939555Q1927.6498040734418 541.6923316654465 1930.1267625117011 544.1116864190952Q1932.6229221781641 546.531041172744 1936.7703874701338 546.531041172744ZM2007.6997244540908 558.1477842358989L2007.6997244540908 558.1477842358989Q2002.7074051211648 558.1477842358989 1997.6766833318316 557.0341130000924Q1992.626760314295 555.9396429924893 1988.4024901095113 553.8659103465047Q1984.1974211329311 551.7921777005199 1981.5668528690435 548.6815787315429Q1978.9362846051554 545.5709797625659 1978.9362846051554 541.5579230680215L1978.9362846051554 541.5579230680215Q1978.9362846051554 536.7192135607239 1981.7012614664682 533.7430231891719Q1984.466238327781 530.7668328176198 1988.7481122171753 530.7668328176198L1988.7481122171753 530.7668328176198Q1992.626760314295 530.7668328176198 1995.3149322627937 533.2629924840828Q1998.022305439496 535.7591521505458 1998.022305439496 539.7530076168866L1998.022305439496 539.7530076168866Q1998.022305439496 541.5579230680215 1997.4654698215927 542.8636065858636Q1996.908634203689 544.1884913319095 1995.7949629678828 545.7053883599908L1995.7949629678828 545.7053883599908Q1997.043042801114 546.9534681932224 2000.2304466829055 547.5103038111257Q2003.3986493364932 548.0479382008255 2006.4516446208595 548.0479382008255L2006.4516446208595 548.0479382008255Q2011.290354128157 548.0479382008255 2013.9209223920452 546.2622239778941Q2016.5322894277297 544.4573085267593 2016.5322894277297 541.8267402628715L2016.5322894277297 541.8267402628715Q2016.5322894277297 537.679274970902 2012.1160069409102 534.7222858275535Q2007.6997244540908 531.7460954560014 2002.0161609058368 528.693100171635L2002.0161609058368 528.693100171635Q1996.908634203689 525.9281233103222 1991.8587111861525 522.8175243413452Q1986.8087881686156 519.7069253723681 1983.429372004789 515.0218256906991Q1980.049955840962 510.3175247808264 1980.049955840962 503.1170642044907L1980.049955840962 503.1170642044907Q1980.049955840962 493.99648080779883 1987.6536422095724 488.0633012928982Q1995.2573285781828 482.110920549794 2009.2166214821723 482.110920549794L2009.2166214821723 482.110920549794Q2018.8940404967675 482.110920549794 2024.6928114142434 484.5302753034428Q2030.5107835599224 486.9496300570916 2033.1221505956069 490.6170646439719Q2035.752718859495 494.28449923085225 2035.752718859495 498.2783546971931L2035.752718859495 498.2783546971931Q2035.752718859495 502.57942981479096 2033.0645469109963 505.1331931658647Q2030.357173734294 507.68695651693844 2026.497726865378 507.68695651693844L2026.497726865378 507.68695651693844Q2023.0415057887367 507.68695651693844 2020.410937524849 505.5364189581395Q2017.780369260961 503.4050826275441 2017.780369260961 499.948861550903L2017.780369260961 499.948861550903Q2017.780369260961 498.2783546971931 2018.3372048788642 496.35823187683695Q2018.8940404967675 494.4189078282772 2019.8541019069457 493.17082799504567L2019.8541019069457 493.17082799504567Q2018.3372048788642 491.9227481618141 2016.3402771456936 491.4427174567251Q2014.3241481843202 490.96268675163606 2011.559171323007 490.96268675163606L2011.559171323007 490.96268675163606Q2007.0084802387628 490.96268675163606 2004.589125485114 493.09402308223144Q2002.1697707314652 495.2445606410303 2002.1697707314652 498.2783546971931L2002.1697707314652 498.2783546971931Q2002.1697707314652 502.98265560706574 2006.6628581310988 506.0356508914321Q2011.1559455307324 509.0694449475949 2016.685899253358 511.9688304063327L2016.685899253358 511.9688304063327Q2021.7934259555054 514.5993986702207 2026.7089403756172 517.6331927263834Q2031.6052535675258 520.6861880107498 2034.9270660467419 525.236879094994Q2038.248878525958 529.8067714074416 2038.248878525958 536.9880307555738L2038.248878525958 536.9880307555738Q2038.248878525958 544.7453269498128 2033.8133948109353 549.3728229468711Q2029.3971123241158 554.0003189439296 2022.4078652580192 556.0740515899142Q2015.4378194201263 558.1477842358989 2007.6997244540908 558.1477842358989ZM2059.3894307780797 558.5702112563773L2059.3894307780797 558.5702112563773Q2053.0338242427006 558.5702112563773 2049.174377373785 554.768368072072Q2045.295729276665 550.9665248877668 2045.295729276665 544.8797355472377L2045.295729276665 544.8797355472377Q2045.295729276665 538.6585376092837 2049.174377373785 534.9142981095891Q2053.0338242427006 531.1892598380981 2059.3894307780797 531.1892598380981L2059.3894307780797 531.1892598380981Q2065.6106287160333 531.1892598380981 2069.489276813153 534.9142981095891Q2073.3679249102724 538.6585376092837 2073.3679249102724 544.8797355472377L2073.3679249102724 544.8797355472377Q2073.3679249102724 550.9665248877668 2069.489276813153 554.768368072072Q2065.6106287160333 558.5702112563773 2059.3894307780797 558.5702112563773ZM2115.380212219666 558.8390284512273L2115.380212219666 558.8390284512273Q2105.299567412796 558.8390284512273 2097.6190761313715 554.2691361387795Q2089.95778607815 549.7184450545353 2085.5991072759416 541.2123009603574Q2081.240428473733 532.7061568661795 2081.240428473733 520.8205966081748L2081.240428473733 520.8205966081748Q2081.240428473733 508.5126093296916 2085.9447293836056 499.7376480406638Q2090.649030293478 490.96268675163606 2098.7903510517885 486.33519075457764Q2106.9508730383022 481.6884935293157 2117.1851276708007 481.6884935293157L2117.1851276708007 481.6884935293157Q2127.822608095574 481.6884935293157 2133.3525618182 486.7384165468524Q2138.882515540826 491.7883395643892 2138.882515540826 499.12320873814986L2138.882515540826 499.12320873814986Q2138.882515540826 505.7476324683787 2135.579904289813 509.33826214244476Q2132.258091810597 512.9480930447144 2126.9969552828206 512.9480930447144L2126.9969552828206 512.9480930447144Q2122.7150813934263 512.9480930447144 2119.815695934689 509.7606891629231Q2116.916310475951 506.57328528113186 2116.916310475951 502.02259419688767L2116.916310475951 502.02259419688767Q2116.916310475951 498.7007817176715 2118.087585396368 496.6270490716868Q2119.2588603167856 494.5533164257021 2121.06377576792 493.17082799504567L2121.06377576792 493.17082799504567Q2119.6812873372637 492.3451751822925 2118.7788296116964 492.1339616720533Q2117.876371886129 491.9227481618141 2117.050719073376 491.9227481618141L2117.050719073376 491.9227481618141Q2114.420150809488 491.9227481618141 2111.6551739481747 493.99648080779883Q2108.8901970868624 496.0702134537835 2107.0276779511164 501.33134998155947Q2105.165158815371 506.57328528113186 2105.165158815371 515.9818871008772L2105.165158815371 515.9818871008772Q2105.165158815371 531.1892598380981 2109.5814413021903 537.3336528632378Q2113.9977237890093 543.4972471165813 2122.0238371780983 543.4972471165813L2122.0238371780983 543.4972471165813Q2125.7488754495894 543.4972471165813 2129.5507186338946 542.3835758807747Q2133.3525618182 541.2891058731716 2135.983130082088 539.215373227187L2135.983130082088 539.215373227187Q2137.0968013178945 540.5978616578434 2137.845649217833 542.5947893910138Q2138.613698345976 544.5917171241842 2138.613698345976 546.1278153804692L2138.613698345976 546.1278153804692Q2138.613698345976 549.0272008392071 2135.5030993769988 552.0033912107592Q2132.392500408022 554.9603803541077 2127.1313638802458 556.8997044026675Q2121.8894285806737 558.8390284512273 2115.380212219666 558.8390284512273ZM2178.974680029863 558.5702112563773L2178.974680029863 558.5702112563773Q2169.1628524178427 558.5702112563773 2161.559166049232 554.3459410515936Q2153.955479680622 550.12167084681 2149.7504107040418 541.9035451756856Q2145.526140499258 533.6854195045612 2145.526140499258 521.511840823503L2145.526140499258 521.511840823503Q2145.526140499258 508.5126093296916 2149.9424229860774 499.66084312784955Q2154.3779067011 490.8282781542111 2162.2504102645603 486.2583858417634Q2170.142115056224 481.6884935293157 2180.3571684605195 481.6884935293157L2180.3571684605195 481.6884935293157Q2190.322605898168 481.6884935293157 2197.849487353964 485.98956864691354Q2205.395570037964 490.2714425363078 2209.600639014544 498.62397680485725Q2213.8249092193278 506.9957123016102 2213.8249092193278 519.3036995800933L2213.8249092193278 519.3036995800933Q2213.8249092193278 532.1493212482762 2209.3894255043047 540.9434837655076Q2204.9731430174857 549.7184450545353 2197.100639454025 554.1347275413546Q2189.208934662361 558.5702112563773 2178.974680029863 558.5702112563773ZM2180.088351265669 548.6047738187287L2180.088351265669 548.6047738187287Q2182.9877367244076 548.6047738187287 2185.138274283206 546.531041172744Q2187.2696106138014 544.4573085267593 2188.460086762422 538.8697511195228Q2189.6313616828397 533.2629924840828 2189.6313616828397 522.6255120593096L2189.6313616828397 522.6255120593096Q2189.6313616828397 509.6262805654982 2188.383281849608 502.9250519224551Q2187.1352020163768 496.20462205120845 2184.7926521755417 493.8620722103739Q2182.430901106504 491.51952236953935 2179.262698452916 491.51952236953935L2179.262698452916 491.51952236953935Q2176.363312994178 491.51952236953935 2174.1359705225655 493.593255015524Q2171.9278292791555 495.6669876615087 2170.7565543587384 501.33134998155947Q2169.585279438321 506.9957123016102 2169.585279438321 517.786802552012L2169.585279438321 517.786802552012Q2169.585279438321 530.6324242201948 2170.890962956163 537.2760491786273Q2172.215847702209 543.900472908856 2174.558397543043 546.2622239778941Q2176.9009473838782 548.6047738187287 2180.088351265669 548.6047738187287ZM2323.444721033462 557.5909486179957L2323.444721033462 557.5909486179957Q2318.3371943313145 557.5909486179957 2314.669759744434 556.1508565027285Q2311.002325157554 554.6915631592578 2311.002325157554 550.4096892698635L2311.002325157554 550.4096892698635L2311.002325157554 504.36514403772225Q2311.002325157554 499.948861550903 2308.582970403905 497.5295067972542Q2306.1636156502564 495.1101520436054 2302.1697601839155 495.1101520436054L2302.1697601839155 495.1101520436054Q2299.9424177123024 495.1101520436054 2297.676672784282 495.9358048563586Q2295.391726628058 496.76145766911173 2293.586811176923 498.4319645228216L2293.586811176923 498.4319645228216Q2293.7212197743484 498.96959891252135 2293.7212197743484 499.46883084581395Q2293.7212197743484 499.948861550903 2293.7212197743484 500.5056971688063L2293.7212197743484 500.5056971688063L2293.7212197743484 541.8267402628715Q2293.7212197743484 545.8397969574157 2295.391726628058 547.5679074957363Q2297.0430322535644 549.2960180340569 2300.633661927631 549.2960180340569L2300.633661927631 549.2960180340569Q2300.633661927631 551.5041592774666 2299.7504054302667 553.3858796414156Q2298.8479477046994 555.2483987771611 2297.331050676618 556.7652958052424L2297.331050676618 556.7652958052424L2267.876366612354 556.7652958052424Q2266.4938781816977 555.2483987771611 2265.5914204561304 553.3858796414156Q2264.688962730563 551.5041592774666 2264.688962730563 549.2960180340569L2264.688962730563 549.2960180340569Q2268.2987936328323 549.2960180340569 2269.7388857480996 547.5679074957363Q2271.1981790915706 545.8397969574157 2271.1981790915706 541.8267402628715L2271.1981790915706 541.8267402628715L2271.1981790915706 504.36514403772225Q2271.1981790915706 499.948861550903 2268.6444157404962 497.5295067972542Q2266.0714511612196 495.1101520436054 2262.480821487153 495.1101520436054L2262.480821487153 495.1101520436054Q2259.8502532232656 495.1101520436054 2257.0852763619523 496.35823187683695Q2254.3202995006395 497.5871104818649 2252.4001766802835 499.948861550903L2252.4001766802835 499.948861550903L2252.4001766802835 541.8267402628715Q2252.4001766802835 545.8397969574157 2253.8402687955504 547.5679074957363Q2255.299562139021 549.2960180340569 2258.755783215662 549.2960180340569L2258.755783215662 549.2960180340569Q2258.755783215662 553.5778919234513 2255.433970736446 556.7652958052424L2255.433970736446 556.7652958052424L2225.441652282482 556.7652958052424Q2223.9055540261975 555.2483987771611 2223.0222975288334 553.3858796414156Q2222.1198398032666 551.5041592774666 2222.1198398032666 549.2960180340569L2222.1198398032666 549.2960180340569Q2226.2673050952358 549.2960180340569 2228.0530193181667 547.5679074957363Q2229.8579347693017 545.8397969574157 2229.8579347693017 541.8267402628715L2229.8579347693017 541.8267402628715L2229.8579347693017 501.33134998155947Q2229.8579347693017 497.7407203074934 2227.861007036131 496.0702134537835Q2225.844878074757 494.4189078282772 2220.602942775185 494.4189078282772L2220.602942775185 494.4189078282772L2220.602942775185 488.33211848774806Q2223.7711454287723 486.3927944391883 2228.6866598488846 484.87589741110696Q2233.5829730407922 483.35900038302555 2238.2296702660547 482.45654265745816Q2242.857166263113 481.5540849318907 2245.3341247013727 481.5540849318907L2245.3341247013727 481.5540849318907Q2248.0991015626855 481.5540849318907 2249.9808219266347 483.2821954702113Q2251.8433410623797 485.01030600853187 2252.4001766802835 490.40585113373277L2252.4001766802835 490.40585113373277Q2255.9908063543494 486.3927944391883 2261.443955164161 483.9734396855395Q2266.916305202176 481.5540849318907 2273.8287473554583 481.5540849318907L2273.8287473554583 481.5540849318907Q2287.653631662023 481.5540849318907 2291.8010969539923 490.8282781542111L2291.8010969539923 490.8282781542111Q2295.391726628058 486.3927944391883 2301.1328938609236 483.9734396855395Q2306.854859865585 481.5540849318907 2313.9209118444955 481.5540849318907L2313.9209118444955 481.5540849318907Q2323.86714805394 481.5540849318907 2328.7826624740524 486.3927944391883Q2333.6789756659605 491.23150394648593 2333.6789756659605 500.5056971688063L2333.6789756659605 500.5056971688063L2333.6789756659605 541.8267402628715Q2333.6789756659605 545.0141441446626 2335.4838911170955 546.6654497701691Q2337.269605340027 548.3359566238789 2340.4570092218178 549.0272008392071L2340.4570092218178 549.0272008392071L2340.4570092218178 553.0402575337515Q2337.960849555355 555.2483987771611 2333.966994089014 556.4196736975784Q2329.9539373944694 557.5909486179957 2323.444721033462 557.5909486179957Z " fill="#403a26" transform="matrix(0.373858617672365,0,0,0.37385861767236506,0,104.3822544186817)"/></g></svg>