<svg xmlns="http://www.w3.org/2000/svg" version="1.1" xmlns:xlink="http://www.w3.org/1999/xlink" xmlns:svgjs="http://svgjs.dev/svgjs" width="100%" height="100%" viewBox="0 0 1000 600"><rect width="1000" height="600" x="0" y="0" fill="#20130a"/><g><circle r="166.66666666666666" cx="538.0138346354166" cy="560.2362300631622" fill="#3b657a" transform="matrix(0.33661203378085763,0,0,0.33661203378085763,0,111.4177208531244)"/><path d="M505.24195598089676 635.236229298521L505.24195598089676 635.236229298521Q492.4656601377465 635.236229298521 484.0910411622588 632.9496439127222Q475.6878398694486 630.634476209601 470.60018738604646 627.1474334962579Q465.54111721996685 623.6889731002375 462.8257970743309 620.2876773388618L462.8257970743309 620.2876773388618Q461.91116292001146 618.9728907420276 461.22518730427186 617.7724334144834Q460.51062937120975 616.5433937696166 460.2248061979849 615.0571132688474L460.2248061979849 615.0571132688474Q459.82465375547014 613.027768738951 459.3959189956328 609.7693845641879Q458.9957665531181 606.5110003894247 459.31017204366543 602.1950704737296L459.31017204366543 602.1950704737296Q459.3959189956328 600.3658021650908 460.0247299767275 599.6798265493512L460.0247299767275 599.6798265493512Q460.7107055924671 598.8795216643216 462.3113153625262 598.4793692218068L462.3113153625262 598.4793692218068Q465.22671172941955 597.7648112887448 469.91421177030685 597.2217472596176Q474.5731294938717 596.650100913168 476.6024740237681 596.650100913168L476.6024740237681 596.650100913168Q478.68898318830935 596.650100913168 480.0037697851436 597.4504057981974Q481.3185563819779 598.2792930005494 483.11924237329436 600.1657259438334L483.11924237329436 600.1657259438334Q485.12000458586823 602.2808174256973 490.0647454826579 605.5677839177829Q494.98090406212515 608.8261680925459 505.24195598089676 608.8261680925459L505.24195598089676 608.8261680925459Q515.0742731398311 608.8261680925459 520.1047609885884 604.7103143981083Q525.1352488373454 600.5658783863482 525.1352488373454 593.2488051517923L525.1352488373454 593.2488051517923Q525.1352488373454 589.3330276786121 522.7629164995794 585.845984965269Q520.3905841618132 582.3875245692484 514.1596389855117 578.929064173228Q507.92869380921024 575.4706037772075 496.3814376109268 571.6405732559947L496.3814376109268 571.6405732559947Q477.2884496395077 565.2095518584358 468.856666029375 555.6630578727262Q460.4248824192423 546.1165638870166 460.4248824192423 529.1386673974613L460.4248824192423 529.1386673974613Q460.4248824192423 515.0761672747992 467.2560562593159 505.61542024105717Q474.0872300993895 496.1832555246375 486.14896800947764 491.3528438971378Q498.1821236022433 486.52243226963805 513.9595627642543 486.52243226963805L513.9595627642543 486.52243226963805Q526.1356299436325 486.52243226963805 534.1100964766053 489.3806640018864Q542.1131453269008 492.26747805145726 546.5148221945633 495.81168539944525Q550.9450813795484 499.3844750647557 552.2598679763826 501.6138958159094L552.2598679763826 501.6138958159094Q553.0601728614122 502.9001000954212 553.3174137173144 503.55749339383834Q553.5746545732168 504.21488669225545 553.6604015251842 505.3295970678323L553.6604015251842 505.3295970678323Q553.9748070157316 508.44506965598305 553.8604777464416 512.2465178598734Q553.7747307944742 516.0765483810862 553.174502130702 520.9069600085859L553.174502130702 520.9069600085859Q552.8600966401548 522.5075697786451 552.0597917551252 523.1077984424172L552.0597917551252 523.1077984424172Q551.3452338220632 523.6222801542219 549.8589533212939 523.6222801542219L549.8589533212939 523.6222801542219Q540.0838007970044 523.8223563754793 534.7674897750226 522.5933167306125L534.7674897750226 522.5933167306125Q532.6523982931587 522.1074173361303 531.9664226774191 521.5929356243255Q531.2518647443569 521.1070362298433 530.1371543687801 519.9923258542665L530.1371543687801 519.9923258542665Q528.5365445987211 518.0773105936601 525.0780842027004 515.533484351959Q521.61962380668 512.9610757929354 513.9595627642543 512.9610757929354L513.9595627642543 512.9610757929354Q503.41268767225785 512.9610757929354 499.0110108045953 517.7343227857903Q494.58075161961034 522.5075697786451 494.58075161961034 528.4241094643992L494.58075161961034 528.4241094643992Q494.58075161961034 535.4553595257302 501.0975199691366 539.4283016335554Q507.6428706359854 543.4012437413807 521.7053707586474 548.4317315901378L521.7053707586474 548.4317315901378Q533.4527031781881 552.5475852845755 541.9130691056434 557.3779969120752Q550.3448527157761 562.208408539575 554.832276535406 569.7255579953883Q559.2911180377134 577.271289768524 559.2911180377134 589.6188508518369L559.2911180377134 589.6188508518369Q559.2911180377134 604.9961375713331 552.2027033417376 615.1428602208148Q545.1142886457617 625.2895828702965 532.9096391490611 630.2629060844088Q520.7049896523606 635.236229298521 505.24195598089676 635.236229298521ZM616.8559051251957 504.8151153560276L616.8559051251957 627.5190036214503Q616.8559051251957 630.5201469403112 615.5982831630065 631.692021950533Q614.3692435181397 632.8353146434322 611.3395178819565 632.8353146434322L611.3395178819565 632.8353146434322L589.9313622074162 632.8353146434322Q586.9302188885554 632.8353146434322 585.6725969263659 631.692021950533Q584.4149749641767 630.5201469403112 584.4149749641767 627.5190036214503L584.4149749641767 627.5190036214503L584.4149749641767 504.8151153560276Q584.4149749641767 501.89971898913427 585.4153560704638 500.3848561710426L585.4153560704638 500.3848561710426Q589.9313622074162 493.75375855222643 598.0773226443239 486.43668531767054L598.0773226443239 486.43668531767054Q599.5921854624157 485.2362279901262 600.6783135206699 485.2362279901262L600.6783135206699 485.2362279901262Q601.9073531655367 485.2362279901262 603.1935574450486 486.43668531767054L603.1935574450486 486.43668531767054Q607.6238166300336 490.2381335215609 610.6249599488942 493.7251762349039Q613.6546855850777 497.18363663092447 615.8555240189089 500.3848561710426L615.8555240189089 500.3848561710426Q616.8559051251957 502.0140482584242 616.8559051251957 504.8151153560276L616.8559051251957 504.8151153560276Z " fill="#e9f0c9" transform="matrix(0.33661203378085763,0,0,0.33661203378085763,0,111.4177208531244)"/><path d="M821.7579391850898 602.7522831540475L821.7579391850898 602.7522831540475Q812.3960294631302 602.7522831540475 806.2594756632774 601.0767735841218Q800.1019779938007 599.3803201445721 796.3949130703401 596.8251680504354Q792.6669042772555 594.290959825923 790.6772366629688 591.7986393406586L790.6772366629688 591.7986393406586Q790.0279767046226 590.8352213379512 789.5043799640208 589.9555788137402Q788.980783223419 589.0549924199051 788.7713445271784 587.9659111994536L788.7713445271784 587.9659111994536Q788.4781303524413 586.4788964561446 788.1849161777044 584.0912953190004Q787.8917020029675 581.7036941818565 788.1011406992081 578.5411698686216L788.1011406992081 578.5411698686216Q788.1849161777044 577.2007622126812 788.6247374398099 576.6981093417035L788.6247374398099 576.6981093417035Q789.1273903107876 576.1116809922296 790.3211908793596 575.8184668174927L790.3211908793596 575.8184668174927Q792.4574655810148 575.2948700768909 795.8713163297383 574.8969365540333Q799.306110948086 574.478059161552 800.7721818217709 574.478059161552L800.7721818217709 574.478059161552Q802.3220281739522 574.478059161552 803.2645023070353 575.0644875110261Q804.2279203097426 575.671859730124 805.5473840960591 577.0541551253127L805.5473840960591 577.0541551253127Q807.034398839368 578.604001477494 810.6367444147082 581.012546484262Q814.2390899900485 583.4001476214062 821.7579391850898 583.4001476214062L821.7579391850898 583.4001476214062Q828.9626303357701 583.4001476214062 832.6487513896066 580.38423039554Q836.334872443443 577.3473693000496 836.334872443443 571.9857386762876L836.334872443443 571.9857386762876Q836.334872443443 569.11642853779 834.5965312646451 566.5612764436532Q832.8791339554713 564.0270682191408 828.3133703774239 561.4928599946281Q823.7476067993765 558.9586517701157 815.286283471252 556.1521732404901L815.286283471252 556.1521732404901Q801.2957785623727 551.4398025750743 795.0963931536477 544.4445501206346Q788.917951614547 537.449297666195 788.917951614547 525.0086391094969L788.917951614547 525.0086391094969Q788.917951614547 514.7042552544542 793.9235364546997 507.77183440888683Q798.9291212948527 500.86035743294343 807.7674342762106 497.32084346647554Q816.6057472575684 493.7813295000076 828.1667632900554 493.7813295000076L828.1667632900554 493.7813295000076Q837.0679078802855 493.7813295000076 842.9321913750252 495.87571646241463Q848.775531000141 497.99104729444576 852.0218307918719 500.58808712783053Q855.2681305836029 503.2060708308394 856.2106047166861 504.8396926615169L856.2106047166861 504.8396926615169Q856.79703306616 505.7821667946001 856.9855278927768 506.2638757959537Q857.1740227193933 506.74558479730734 857.2368543282655 507.5623957126461L857.2368543282655 507.5623957126461Q857.4672368941303 509.8452775016698 857.3834614156341 512.6308121616712Q857.3206298067618 515.4372906912968 856.8808085446564 518.9768046577647L856.8808085446564 518.9768046577647Q856.6504259787915 520.1496613567126 856.0639976293176 520.589482618818L856.0639976293176 520.589482618818Q855.5613447583399 520.9664722720513 854.4513196682641 520.9664722720513L854.4513196682641 520.9664722720513Q847.309460126456 521.1130793594198 843.3929565067548 520.2124929655847L843.3929565067548 520.2124929655847Q841.8640540241976 519.8564471819756 841.3404572835958 519.4794575287424Q840.816860542994 519.1234117451331 840.0209934972794 518.3066008297944L840.0209934972794 518.3066008297944Q838.8481367983314 516.9033615649817 836.2929847041949 515.0393571684393Q833.7587764796823 513.154408902273 828.1667632900554 513.154408902273L828.1667632900554 513.154408902273Q820.4384753987733 513.154408902273 817.1921756070424 516.6520351294928Q813.9458758153114 520.1496613567126 813.9458758153114 524.4850423688952L813.9458758153114 524.4850423688952Q813.9458758153114 529.6372342964166 818.7420219592235 532.5484321741624Q823.5172242335117 535.4596300519083 833.8216080885545 539.1457511057447L833.8216080885545 539.1457511057447Q842.4504823736717 542.1616683316108 848.6289239127725 545.7011822980788Q854.8073654518734 549.2406962645468 858.0955529828524 554.7489339756773Q861.3627966442075 560.2781155564321 861.3627966442075 569.3258672340307L861.3627966442075 569.3258672340307Q861.3627966442075 580.5936690917806 856.168716977438 588.0287428083257Q850.9955811802924 595.4638165248709 842.0316049811902 599.1080498394592Q833.0885726517121 602.7522831540475 821.7579391850898 602.7522831540475ZM914.0785164879934 602.8360586325437L914.0785164879934 602.8360586325437Q895.5431918706909 602.8360586325437 884.7152112750463 592.9714960396066Q873.8872306794018 583.1069334466692 873.8872306794018 563.5872469570352L873.8872306794018 563.5872469570352Q873.8872306794018 543.5649075964236 885.1131447979036 533.6584572642382Q896.3390589164055 523.7520069320527 915.1257099691969 523.7520069320527L915.1257099691969 523.7520069320527Q933.2421571940182 523.7520069320527 944.1329693985349 533.5118501768698Q955.0237816030517 543.2716934216867 955.0237816030517 562.2677831707188L955.0237816030517 562.2677831707188Q955.0237816030517 582.0597399654657 944.1329693985349 592.4478992990048Q933.2421571940182 602.8360586325437 914.0785164879934 602.8360586325437ZM914.83249579446 585.0128255824595L914.83249579446 585.0128255824595Q922.9168294693512 585.0128255824595 927.0427717852932 579.9653530030585Q931.1687141012352 574.9178804236576 931.1687141012352 562.7076044328243L931.1687141012352 562.7076044328243Q931.1687141012352 551.062812921841 927.000884046045 546.329498386801Q922.8539978604791 541.575239982137 914.6858887070915 541.575239982137L914.6858887070915 541.575239982137Q906.7900498588168 541.575239982137 902.2661740200175 546.6855441704101Q897.7422981812183 551.8167922283076 897.7422981812183 563.2940327822982L897.7422981812183 563.2940327822982Q897.7422981812183 575.2948700768909 902.0567353237768 580.1538478296752Q906.3502285967114 585.0128255824595 914.83249579446 585.0128255824595ZM995.8852712396136 595.4638165248709L980.5124709355457 602.5428444578067Q978.9626245833645 603.1921044161529 978.2924207553942 603.1921044161529L978.2924207553942 603.1921044161529Q977.622216927424 603.1921044161529 976.8891814905814 602.6894515451752L976.8891814905814 602.6894515451752Q975.1927280510317 601.5165948462272 973.0355094797525 596.9089435289318Q970.8573470388491 592.3012922116361 970.8573470388491 582.729943793436L970.8573470388491 582.729943793436L970.8573470388491 497.467450553844Q970.8573470388491 495.7081655054221 971.5903824756916 494.7447475027148L971.5903824756916 494.7447475027148Q974.6900751800541 490.7025806652692 980.6590780229142 485.9902099998533L980.6590780229142 485.9902099998533Q981.6853276344937 485.23623069338674 982.5021385498325 485.23623069338674L982.5021385498325 485.23623069338674Q983.4446126829156 485.23623069338674 984.3242552071266 485.9902099998533L984.3242552071266 485.9902099998533Q987.5077233899854 488.4196988762455 989.6649419612646 490.5559735779007Q991.843104402168 492.6922482795559 993.3929507543492 494.7447475027148L993.3929507543492 494.7447475027148Q994.1259861911917 495.7081655054221 994.1259861911917 497.467450553844L994.1259861911917 497.467450553844L994.1259861911917 578.2479556938847Q994.1259861911917 583.1069334466692 994.9427971065304 586.5207841953927Q995.7386641522452 589.9555788137402 996.8486892423209 592.0080780368992L996.8486892423209 592.0080780368992Q998.1053214197651 594.4375669132914 995.8852712396136 595.4638165248709L995.8852712396136 595.4638165248709ZM1040.5794890173806 602.8360586325437L1040.5794890173806 602.8360586325437Q1014.378708117668 602.8360586325437 1014.378708117668 571.1060961520766L1014.378708117668 571.1060961520766L1014.2949326391717 533.7003450034863Q1014.2949326391717 531.9201160854403 1015.0279680760142 530.9776419523571L1015.0279680760142 530.9776419523571Q1018.1276607803767 526.9145312452874 1024.096663623237 522.2021605798716L1024.096663623237 522.2021605798716Q1025.1229132348162 521.469125143029 1025.9397241501551 521.469125143029L1025.9397241501551 521.469125143029Q1026.8821982832383 521.469125143029 1027.7827846770733 522.2021605798716L1027.7827846770733 522.2021605798716Q1030.9453089903081 524.6316494562637 1033.102527561587 526.767924157919Q1035.2806900024907 528.9041988595741 1036.830536354672 530.9776419523571L1036.830536354672 530.9776419523571Q1037.5635717915143 531.9201160854403 1037.5635717915143 533.7003450034863L1037.5635717915143 533.7003450034863L1037.5635717915143 569.0326530592936Q1037.5635717915143 585.0128255824595 1050.234612914077 585.0128255824595L1050.234612914077 585.0128255824595Q1056.4968299316743 585.0128255824595 1060.245782594383 580.6355568310289Q1063.9947352570916 576.2582880795981 1063.9947352570916 568.7394388845566L1063.9947352570916 568.7394388845566L1063.9947352570916 533.7003450034863Q1063.9947352570916 531.9201160854403 1064.727770693934 530.9776419523571L1064.727770693934 530.9776419523571Q1067.8274633982965 526.9145312452874 1073.7964662411568 522.2021605798716L1073.7964662411568 522.2021605798716Q1074.822715852736 521.469125143029 1075.639526768075 521.469125143029L1075.639526768075 521.469125143029Q1076.5820009011582 521.469125143029 1077.4825872949932 522.2021605798716L1077.4825872949932 522.2021605798716Q1080.6451116082276 524.6316494562637 1082.8232740491312 526.767924157919Q1084.9804926204106 528.9041988595741 1086.5303389725918 530.9776419523571L1086.5303389725918 530.9776419523571Q1087.2633744094342 531.9201160854403 1087.2633744094342 533.7003450034863L1087.2633744094342 533.7003450034863L1087.2633744094342 597.600091226526Q1087.2633744094342 599.0033304913388 1086.320900276351 600.0086362332943Q1085.3574822736437 600.9929981056255 1083.8914113999585 600.9929981056255L1083.8914113999585 600.9929981056255L1072.8330482384495 600.9929981056255Q1071.6601915395013 600.9929981056255 1070.7386612760424 600.6578961916405Q1069.817131012583 600.3227942776552 1069.0003200972446 599.3803201445721L1069.0003200972446 599.3803201445721L1064.434556519197 593.4741489105841L1063.9319036482193 593.4741489105841Q1062.7590469492716 595.1706023501338 1060.287670333631 597.3906525302855Q1057.816293717991 599.5897588408127 1053.145810791823 601.2233806714903Q1048.4753278656553 602.8360586325437 1040.5794890173806 602.8360586325437ZM1144.691464918636 523.7520069320527L1144.691464918636 523.7520069320527Q1153.4669462911215 523.7520069320527 1157.4462815196953 525.1971339361137Q1161.4046728786443 526.6213170705505 1162.4518663598478 527.4381279858892L1162.4518663598478 527.4381279858892Q1164.0645443209014 528.4643775974687 1164.9441868451122 530.077055558522L1164.9441868451122 530.077055558522Q1165.4677835857142 530.8938664738608 1166.1170435440604 532.8835340881476Q1166.7872473720304 534.8732017024342 1167.0804615467678 537.2189151003302L1167.0804615467678 537.2189151003302Q1167.4574512000008 539.0619756272484 1167.164237025264 539.8368988033391Q1166.871022850527 540.6118219794297 1165.3211764983457 541.7218470695054L1165.3211764983457 541.7218470695054Q1163.5409475802994 542.8947037684534 1161.4465606178924 543.8162340319125Q1159.3521736554853 544.7377642953716 1158.0327098691691 545.1147539486049L1158.0327098691691 545.1147539486049Q1156.9226847790933 545.4079681233418 1156.3362564296194 545.2613610359733Q1155.749828080145 545.1147539486049 1154.7235784685658 544.3607746421383L1154.7235784685658 544.3607746421383Q1153.5297778999939 543.5649075964236 1151.3935031983387 542.5596018544683Q1149.2572284966836 541.575239982137 1145.508275833975 541.575239982137L1145.508275833975 541.575239982137Q1140.7330735596865 541.575239982137 1136.4186364171283 543.9209533800329Q1132.1041992745695 546.2876106475528 1129.4233839626886 550.9999813129687Q1126.7425686508072 555.7123519783846 1126.7425686508072 562.7704360416965L1126.7425686508072 562.7704360416965Q1126.7425686508072 573.3889779411004 1132.292694101186 579.190429826968Q1137.8428195515648 585.0128255824595 1147.2047292735247 585.0128255824595L1147.2047292735247 585.0128255824595Q1151.9799315478126 585.0128255824595 1155.1633997306712 584.0284637101283Q1158.325924043906 583.0231579681729 1160.1689845708243 581.9969083565934L1160.1689845708243 581.9969083565934Q1161.6350554445094 581.1800974412547 1162.4099786205998 581.5989748337361Q1163.1849017966906 581.9969083565934 1163.624723058796 583.0231579681729L1163.624723058796 583.0231579681729L1169.007297552182 595.1706023501338Q1169.8031645978967 597.0974383555483 1168.106711158347 597.893305401263L1168.106711158347 597.893305401263Q1165.384008107218 599.2965446660758 1159.1217910896207 601.0767735841218Q1152.8805179416477 602.8360586325437 1143.6652153070568 602.8360586325437L1143.6652153070568 602.8360586325437Q1125.192722298626 602.8360586325437 1114.134359137117 593.0133837788546Q1103.0969398452316 583.1697650555413 1103.0969398452316 563.5872469570352L1103.0969398452316 563.5872469570352Q1103.0969398452316 551.062812921841 1108.1863001638808 542.1616683316108Q1113.2547166129057 533.2605237413809 1122.6166263348655 528.5062653367168Q1131.957592187201 523.7520069320527 1144.691464918636 523.7520069320527ZM1137.1097841147225 635.2362249409812L1137.1097841147225 635.2362249409812Q1135.4133306751728 635.2362249409812 1133.8006527141192 635.1524494624848Q1132.1879747530656 635.0896178536127 1130.6381284008849 634.9430107662442L1130.6381284008849 634.9430107662442L1130.6381284008849 624.7852339985698Q1133.2142243646454 625.2250552606754 1135.9369274157743 625.2250552606754L1135.9369274157743 625.2250552606754Q1144.984679093373 625.2250552606754 1144.984679093373 619.8424807672891L1144.984679093373 619.8424807672891Q1144.984679093373 614.9835030145048 1136.8165699399856 614.9835030145048L1136.8165699399856 614.9835030145048Q1136.3139170690079 614.9835030145048 1135.6437132410374 615.0253907537528Q1134.9735094130674 615.0463346233769 1134.0938668888562 615.1301101018732L1134.0938668888562 615.1301101018732L1134.0938668888562 600.9929981056255L1146.7649080114188 600.9929981056255L1146.7649080114188 607.7578679942003Q1160.5250303544335 608.2814647348021 1160.5250303544335 619.9890878546576L1160.5250303544335 619.9890878546576Q1160.5250303544335 635.2362249409812 1137.1097841147225 635.2362249409812ZM1217.1572538179207 602.8360586325437L1217.1572538179207 602.8360586325437Q1198.6009853309943 602.8360586325437 1187.7730047353493 592.9714960396066Q1176.9450241397049 583.1069334466692 1176.9450241397049 563.5872469570352L1176.9450241397049 563.5872469570352Q1176.9450241397049 543.5649075964236 1188.1709382582067 533.6584572642382Q1199.4177962463327 523.7520069320527 1218.1835034295 523.7520069320527L1218.1835034295 523.7520069320527Q1236.2999506543215 523.7520069320527 1247.1907628588378 533.5118501768698Q1258.0815750633546 543.2716934216867 1258.0815750633546 562.2677831707188L1258.0815750633546 562.2677831707188Q1258.0815750633546 582.0597399654657 1247.1907628588378 592.4478992990048Q1236.2999506543215 602.8360586325437 1217.1572538179207 602.8360586325437ZM1217.890289254763 585.0128255824595L1217.890289254763 585.0128255824595Q1225.9955667992785 585.0128255824595 1230.1215091152203 579.9653530030585Q1234.2265075615383 574.9178804236576 1234.2265075615383 562.7076044328243L1234.2265075615383 562.7076044328243Q1234.2265075615383 551.062812921841 1230.0796213759722 546.329498386801Q1225.9117913207824 541.575239982137 1217.7436821673946 541.575239982137L1217.7436821673946 541.575239982137Q1209.8687871887441 541.575239982137 1205.3449113499446 546.6855441704101Q1200.8000916415217 551.8167922283076 1200.8000916415217 563.2940327822982L1200.8000916415217 563.2940327822982Q1200.8000916415217 575.2948700768909 1205.11452878408 580.1538478296752Q1209.4289659266387 585.0128255824595 1217.890289254763 585.0128255824595ZM1230.7079374646942 513.8036688606192L1230.7079374646942 513.8036688606192Q1226.8752093234893 513.8036688606192 1224.3619449686012 512.861194727536Q1221.8696244833363 511.8977767248287 1218.8537072574704 509.908109110542L1218.8537072574704 509.908109110542Q1215.754014553108 507.9184414962553 1213.659627590701 506.8293602758036Q1211.5652406282939 505.71933518572786 1209.785011710248 505.71933518572786L1209.785011710248 505.71933518572786Q1204.6328197827265 505.71933518572786 1204.6328197827265 513.0706334237766L1204.6328197827265 513.0706334237766L1192.7785895755023 513.0706334237766Q1192.7785895755023 489.15273431308793 1209.4917975355106 489.15273431308793L1209.4917975355106 489.15273431308793Q1213.408301155212 489.15273431308793 1215.8587339012283 490.3255910120359Q1218.3301105168684 491.49844771098384 1221.2831961338625 493.4881153252706L1221.2831961338625 493.4881153252706Q1224.4457204470973 495.6243900269258 1226.2050054955193 496.5459202903849Q1227.9852344135652 497.467450553844 1229.8073510708596 497.467450553844L1229.8073510708596 497.467450553844Q1235.1270939553733 497.467450553844 1235.1270939553733 489.88576974993043L1235.1270939553733 489.88576974993043L1247.1907628588378 489.88576974993043Q1247.1907628588378 501.36301030392116 1242.9601011947757 507.5833395822702Q1238.7294395307135 513.8036688606192 1230.7079374646942 513.8036688606192ZM1310.881070385637 602.8360586325437L1310.881070385637 602.8360586325437Q1298.440411828939 602.8360586325437 1289.2460530639719 598.8148356647223Q1280.030750429381 594.8145565665247 1274.9623339803557 586.332289368776Q1269.8729736617065 577.8709660406514 1269.8729736617065 564.4668894812462L1269.8729736617065 564.4668894812462Q1269.8729736617065 544.3607746421383 1280.1773575167495 534.0563907870956Q1290.4817413717924 523.7520069320527 1307.5719389850337 523.7520069320527L1307.5719389850337 523.7520069320527Q1318.6931337554156 523.7520069320527 1326.3795339074495 527.7313421606261Q1334.0868779291077 531.7106773891996 1338.0871570273052 538.7059298436393Q1342.1083799951266 545.7011822980788 1342.1083799951266 554.6861023668052L1342.1083799951266 554.6861023668052Q1342.1083799951266 563.4406398696667 1337.6054480259513 566.8963783576385Q1333.1234599264003 570.35211684561 1324.515529510907 570.35211684561L1324.515529510907 570.35211684561L1292.9112302481844 570.35211684561Q1293.5186024672826 577.9547415191478 1298.4822995681875 581.913132878097Q1303.445996669092 585.8924681066705 1311.9910954757129 585.8924681066705L1311.9910954757129 585.8924681066705Q1318.7559653642875 585.8924681066705 1322.8400199409816 583.8818566227599Q1326.9450183872991 581.8503012692249 1328.5576963483527 580.677444570277L1328.5576963483527 580.677444570277Q1329.9609356131655 579.6302510890735 1331.7202206615875 579.7140265675698L1331.7202206615875 579.7140265675698Q1333.1234599264003 579.7140265675698 1335.7414436294089 580.2585671777956Q1338.359427332418 580.8240516576454 1340.9355232961784 582.2901225313303L1340.9355232961784 582.2901225313303Q1342.7576399534728 583.2535405340377 1342.7576399534728 584.9499939735874L1342.7576399534728 584.9499939735874Q1342.7576399534728 585.8924681066705 1342.4015941698635 587.6726970247166L1342.4015941698635 587.6726970247166Q1342.171211603999 588.6989466362961 1341.6685587330212 590.6467265113347Q1341.1449619924192 592.5945063863733 1340.3281510770807 594.290959825923L1340.3281510770807 594.290959825923Q1339.888329814975 595.1077707412617 1338.9458556818918 595.8408061781042L1338.9458556818918 595.8408061781042Q1337.4588409385829 596.8670557896837 1334.1915972772276 598.5635092292334Q1330.9034097462486 600.2599626687831 1325.2485649477494 601.5375387158513Q1319.5727762796264 602.8360586325437 1310.881070385637 602.8360586325437ZM1292.764623160816 555.2725307162791L1292.764623160816 555.2725307162791L1316.7662977500008 555.2725307162791Q1320.5361942823338 555.2725307162791 1320.5361942823338 551.8167922283076L1320.5361942823338 551.8167922283076Q1320.5361942823338 546.5808248222897 1317.2480067513548 542.9994231165738Q1313.9807630899995 539.4389652804816 1307.4253318976653 539.4389652804816L1307.4253318976653 539.4389652804816Q1300.2834723558572 539.4389652804816 1296.9324532160058 544.0047288585291Q1293.581434076155 548.5704924365766 1292.764623160816 555.2725307162791ZM1379.2837485778518 602.8360586325437L1379.2837485778518 602.8360586325437Q1371.4088535992014 602.8360586325437 1366.2147739324319 601.5165948462272Q1361.0206942656623 600.1761871902868 1357.900057691676 598.3121827937446Q1354.7794211176893 596.4272345275781 1352.9991921996434 594.8773881753968L1352.9991921996434 594.8773881753968Q1351.6797284133268 593.6207559979525 1352.7059780249065 592.0918535153955L1352.7059780249065 592.0918535153955L1360.2248272199477 580.9706587450139Q1361.8375051810012 578.604001477494 1363.8900044041602 580.677444570277L1363.8900044041602 580.677444570277Q1366.0262791058153 582.729943793436 1369.6705124204036 584.6777236684745Q1373.314745734992 586.6255035435131 1378.781095706874 586.6255035435131L1378.781095706874 586.6255035435131Q1383.6400734596587 586.6255035435131 1386.7607100336454 584.9709378432115Q1389.8813466076317 583.3163721429098 1389.8813466076317 580.1538478296752L1389.8813466076317 580.1538478296752Q1389.8813466076317 577.9547415191478 1388.4990512124432 576.551502254335Q1387.0958119476304 575.1482629895222 1383.5562979811625 573.6821921158373Q1380.0167840146946 572.1951773725284 1373.691735388225 569.9122955835046L1373.691735388225 569.9122955835046Q1364.3507695358894 566.5403325740292 1359.5546233919777 561.744186430117Q1354.7794211176893 556.9689841558288 1354.7794211176893 547.7536815212377L1354.7794211176893 547.7536815212377Q1354.7794211176893 539.2923581931132 1359.4499040438573 533.9935591782233Q1364.1203869700248 528.6947601633335 1371.4507413384495 526.2233835476932Q1378.781095706874 523.7520069320527 1386.718822294397 523.7520069320527L1386.718822294397 523.7520069320527Q1396.813767453199 523.7520069320527 1400.8978220298927 525.6369551982191Q1404.9818766065869 527.5009595947614 1406.1547333055346 528.5481530759649L1406.1547333055346 528.5481530759649Q1407.2647583956104 529.4906272090482 1407.7045796577158 530.7472593864924L1407.7045796577158 530.7472593864924Q1408.6679976604232 533.61656952499 1409.1915944010248 538.328940190406L1409.1915944010248 538.328940190406Q1409.4848085757621 541.0516432415352 1407.788355136212 541.9312857657461L1407.788355136212 541.9312857657461Q1406.9087126120012 542.4548825063479 1404.9818766065869 543.0413108558218Q1403.0759844707964 543.6277392052959 1401.1491484653816 544.0675604674013Q1399.2432563295915 544.5283255991309 1398.2798383268841 544.5283255991309L1398.2798383268841 544.5283255991309Q1397.9866241521472 544.5283255991309 1397.6515222381618 544.3398307725142Q1397.337364193801 544.1513359458977 1396.520553278462 543.4183005090551L1396.520553278462 543.4183005090551Q1395.5571352757547 542.4548825063479 1393.232365747483 541.1982503289037Q1390.9285400888352 539.9625620210835 1386.8654293817658 539.9625620210835L1386.8654293817658 539.9625620210835Q1382.886094153192 539.9625620210835 1380.2052788413112 541.2401380681517Q1377.5244635294302 542.5386579848441 1377.5244635294302 545.764013906951L1377.5244635294302 545.764013906951Q1377.5244635294302 549.303527873419 1380.9383142781535 551.062812921841Q1384.373108896501 552.8430418398871 1392.2480038751519 555.6285764998884L1392.2480038751519 555.6285764998884Q1398.4264454142526 557.7648512015436 1403.0340967315483 560.3200032956802Q1407.6417480488435 562.8542115201928 1410.1340685341079 566.9382660968865Q1412.6473328889965 571.0223206735805 1412.6473328889965 577.9547415191478L1412.6473328889965 577.9547415191478Q1412.6473328889965 586.9396615878741 1407.746467396964 592.4060115597565Q1402.8456019049313 597.893305401263 1395.2220333617697 600.3646820169033Q1387.5984648186081 602.8360586325437 1379.2837485778518 602.8360586325437ZM1494.2237050747522 507.18540605941286L1494.2237050747522 597.0974383555483Q1494.2237050747522 599.2965446660758 1493.3021748112928 600.1552433206627Q1492.3806445478335 600.9929981056255 1490.181538237306 600.9929981056255L1490.181538237306 600.9929981056255L1474.4945798888775 600.9929981056255Q1472.2745297087258 600.9929981056255 1471.352999445267 600.1552433206627Q1470.452413051432 599.2965446660758 1470.452413051432 597.0974383555483L1470.452413051432 597.0974383555483L1470.452413051432 507.18540605941286Q1470.452413051432 505.04913135775763 1471.1854484882742 503.93910626768184L1471.1854484882742 503.93910626768184Q1474.4945798888775 499.08012851489747 1480.4635827317375 493.71849789113537L1480.4635827317375 493.71849789113537Q1481.552663952189 492.8388553669244 1482.369474867528 492.8388553669244L1482.369474867528 492.8388553669244Q1483.2491173917388 492.8388553669244 1484.2125353944461 493.71849789113537L1484.2125353944461 493.71849789113537Q1487.458835186177 496.50403255113673 1489.6579414967046 499.0591846452734Q1491.8779916768563 501.59339286978593 1493.4906696379094 503.93910626768184L1493.4906696379094 503.93910626768184Q1494.2237050747522 505.1329068362539 1494.2237050747522 507.18540605941286L1494.2237050747522 507.18540605941286ZM1588.8481080363035 554.0996740173312L1588.8481080363035 554.0996740173312L1588.8481080363035 597.0974383555483Q1588.8481080363035 599.2965446660758 1587.9265777728442 600.1552433206627Q1587.0050475093853 600.9929981056255 1584.7849973292336 600.9929981056255L1584.7849973292336 600.9929981056255L1569.6216357214066 600.9929981056255Q1567.4225294108792 600.9929981056255 1566.5009991474199 600.1552433206627Q1565.579468883961 599.2965446660758 1565.579468883961 597.0974383555483L1565.579468883961 597.0974383555483L1565.579468883961 557.9114582889121Q1565.579468883961 549.889956222893 1562.1865620048616 546.2038351690566Q1558.7936551257621 542.5386579848441 1552.9922032398945 542.5386579848441L1552.9922032398945 542.5386579848441Q1547.1698074844026 542.5386579848441 1544.028227040792 545.0309784701086Q1540.9075904668057 547.5442428249971 1539.211137027256 551.3560270965779L1539.211137027256 551.3560270965779L1539.211137027256 597.0974383555483Q1539.211137027256 599.2965446660758 1538.2896067637967 600.1552433206627Q1537.3680765003378 600.9929981056255 1535.1689701898104 600.9929981056255L1535.1689701898104 600.9929981056255L1520.0056085819829 600.9929981056255Q1517.7855584018316 600.9929981056255 1516.8640281383723 600.1552433206627Q1515.942497874913 599.2965446660758 1515.942497874913 597.0974383555483L1515.942497874913 597.0974383555483L1515.942497874913 535.396798443036Q1515.942497874913 533.61656952499 1516.6755333117558 532.6531515222828L1516.6755333117558 532.6531515222828Q1518.225379663937 530.6006522991238 1520.4035421048402 528.4643775974687Q1522.5817045457438 526.3281028958135 1525.7442288589782 523.8986140194213L1525.7442288589782 523.8986140194213Q1526.6867029920613 523.1655785825787 1527.5872893858964 523.1655785825787L1527.5872893858964 523.1655785825787Q1528.3831564316115 523.1655785825787 1529.4303499128146 523.8986140194213L1529.4303499128146 523.8986140194213Q1532.5090987475533 526.3281028958135 1534.7291489277045 528.5481530759649Q1536.928255238232 530.7472593864924 1538.6247086777817 533.1139166540124L1538.6247086777817 533.1139166540124L1539.0016983310152 533.1139166540124Q1540.2373866388352 531.4802948233348 1542.7506509937239 529.3230762520556Q1545.2429714789882 527.1449138111523 1549.7877911874116 525.4484603716026Q1554.3116670262107 523.7520069320527 1561.3697510895227 523.7520069320527L1561.3697510895227 523.7520069320527Q1568.30217193509 523.7520069320527 1574.5643889526873 526.5584854616782Q1580.8056621006604 529.3440201216797 1584.8268850684817 535.9832267925101Q1588.8481080363035 542.6014895937165 1588.8481080363035 554.0996740173312ZM1644.8729592806926 602.8360586325437L1644.8729592806926 602.8360586325437Q1626.3166907937657 602.8360586325437 1615.4887101981212 592.9714960396066Q1604.681673472101 583.1069334466692 1604.681673472101 563.5872469570352L1604.681673472101 563.5872469570352Q1604.681673472101 543.5649075964236 1615.9075875906028 533.6584572642382Q1627.1335017091046 523.7520069320527 1645.8992088922719 523.7520069320527L1645.8992088922719 523.7520069320527Q1664.015656117093 523.7520069320527 1674.9064683216102 533.5118501768698Q1685.8182243957508 543.2716934216867 1685.8182243957508 562.2677831707188L1685.8182243957508 562.2677831707188Q1685.8182243957508 582.0597399654657 1674.9064683216102 592.4478992990048Q1664.015656117093 602.8360586325437 1644.8729592806926 602.8360586325437ZM1645.605994717535 585.0128255824595L1645.605994717535 585.0128255824595Q1653.7112722620504 585.0128255824595 1657.8372145779922 579.9653530030585Q1661.9631568939344 574.9178804236576 1661.9631568939344 562.7076044328243L1661.9631568939344 562.7076044328243Q1661.9631568939344 551.062812921841 1657.7953268387441 546.329498386801Q1653.6274967835543 541.575239982137 1645.4593876301665 541.575239982137L1645.4593876301665 541.575239982137Q1637.584492651516 541.575239982137 1633.0606168127165 546.6855441704101Q1628.5367409739174 551.8167922283076 1628.5367409739174 563.2940327822982L1628.5367409739174 563.2940327822982Q1628.5367409739174 575.2948700768909 1632.830234246852 580.1538478296752Q1637.1446713894106 585.0128255824595 1645.605994717535 585.0128255824595ZM1717.5481868762176 594.1443527385545L1717.5481868762176 594.1443527385545Q1713.5060200387725 587.7355286335887 1709.5685725494468 579.3789246535846Q1705.6101811904978 571.0223206735805 1702.4267130076387 562.4562779973354Q1699.2223009551558 553.8692914514664 1697.2954649497415 546.7693196489065Q1695.389572813951 539.6484039767224 1695.389572813951 535.8366197051416L1695.389572813951 535.8366197051416Q1695.389572813951 534.3496049618325 1696.1854398596656 533.4071308287494L1696.1854398596656 533.4071308287494Q1699.5783467387655 529.1974130343111 1705.8405637563624 524.6316494562637L1705.8405637563624 524.6316494562637Q1706.9505888464382 523.8986140194213 1707.830231370649 523.8986140194213L1707.830231370649 523.8986140194213Q1708.7936493733564 523.8986140194213 1709.8198989849357 524.6316494562637L1709.8198989849357 524.6316494562637Q1713.212805864035 527.0611383326559 1715.516631522683 529.1974130343111Q1717.841401050955 531.3336877359664 1719.4540790120082 533.4071308287494L1719.4540790120082 533.4071308287494Q1720.270889927347 534.3496049618325 1720.270889927347 536.1298338798786L1720.270889927347 536.1298338798786L1720.270889927347 535.7528442266453Q1720.270889927347 540.5489903705575 1722.0092311061449 548.3191660010878Q1723.7266284153188 556.0683977619938 1726.7425456411847 564.697272047111Q1729.7794067366754 573.305202462604 1733.7377980956244 580.5308374829085L1733.7377980956244 580.5308374829085L1734.114787748858 580.5308374829085Q1737.4239191494612 575.0644875110261 1740.0000151132217 568.7394388845566Q1742.5761110769827 562.4143902580872 1744.3563399950285 556.0683977619938Q1746.1156250434506 549.7433491355246 1747.0371553069094 544.4445501206346Q1747.9586855703687 539.1457511057447 1747.9586855703687 535.8366197051416L1747.9586855703687 535.8366197051416L1747.9586855703687 536.1298338798786Q1747.9586855703687 534.3496049618325 1748.691721007211 533.4071308287494L1748.691721007211 533.4071308287494Q1750.3881744467608 531.3336877359664 1752.6710562357844 529.1974130343111Q1754.9539380248084 527.0611383326559 1758.200237816539 524.6316494562637L1758.200237816539 524.6316494562637Q1759.2264874281186 523.8986140194213 1760.1061299523299 523.8986140194213L1760.1061299523299 523.8986140194213Q1761.1323795639091 523.8986140194213 1762.01202208812 524.6316494562637L1762.01202208812 524.6316494562637Q1765.3420973583475 527.0611383326559 1767.624979147371 529.1974130343111Q1769.9078609363946 531.3336877359664 1771.5205388974482 533.4071308287494L1771.5205388974482 533.4071308287494Q1772.2535743342905 534.3496049618325 1772.2535743342905 535.9832267925101L1772.2535743342905 535.9832267925101Q1772.1907427254182 539.9625620210835 1770.2010751111316 547.1253654325157Q1768.211407496845 554.309112713572 1764.8603883569936 562.8960992594409Q1761.5093692171422 571.4621419356858 1757.3834269012004 579.7559143068179Q1753.2574845852582 588.0287428083257 1748.984935181948 594.1443527385545L1748.984935181948 594.1443527385545Q1746.4088392181875 597.893305401263 1744.3563399950285 599.4431517534442Q1742.2828969022453 600.9929981056255 1737.2144804532204 600.9929981056255L1737.2144804532204 600.9929981056255L1729.4024170834418 600.9929981056255Q1724.1036180685524 600.9929981056255 1722.0720627150172 599.5269272319406Q1720.0614512311063 598.0399124886317 1717.5481868762176 594.1443527385545ZM1695.389572813951 536.1298338798786L1695.389572813951 535.7528442266453L1695.389572813951 535.8366197051416Q1695.389572813951 535.9832267925101 1695.389572813951 536.1298338798786L1695.389572813951 536.1298338798786ZM1772.2535743342905 535.8366197051416L1772.2535743342905 535.8366197051416L1772.2535743342905 536.1298338798786L1772.2535743342905 535.9832267925101Q1772.2535743342905 535.8994513140137 1772.2535743342905 535.8366197051416ZM1805.3867760795702 602.8360586325437L1805.3867760795702 602.8360586325437Q1794.5587954839257 602.8360586325437 1788.1918591182084 596.7623364415633Q1781.8249227524907 590.6886142505828 1781.8249227524907 580.0072407423067L1781.8249227524907 580.0072407423067Q1781.8249227524907 574.478059161552 1783.8564781060259 569.7447446265121Q1785.8670895899363 564.990486221848 1790.9145621693374 561.3462529072597Q1795.9620347487385 557.7020195926714 1805.0516741655852 555.4819694125199Q1814.1413135824318 553.2828631019925 1828.2784255786796 552.9058734487592L1828.2784255786796 552.9058734487592Q1828.2784255786796 546.2038351690566 1824.9483503084525 543.2716934216867Q1821.5973311686012 540.3186078046926 1814.895292888899 540.3186078046926L1814.895292888899 540.3186078046926Q1808.842514567542 540.3186078046926 1805.0307302959613 542.3920508974757Q1801.198002154756 544.4445501206346 1800.2345841520487 545.1775855574771L1800.2345841520487 545.1775855574771Q1799.2083345404694 546.057228081688 1797.7422636667848 545.8477893854474L1797.7422636667848 545.8477893854474Q1795.7525960524977 545.5545752107104 1793.4906581330983 544.8215397738679Q1791.2496640833224 544.0675604674013 1788.6735681195619 543.1250863343182L1788.6735681195619 543.1250863343182Q1788.3175223359526 542.9784792469497 1787.8567572042234 542.6433773329645Q1787.4169359421176 542.3082754189794 1787.3541043332457 541.6380715910091L1787.3541043332457 541.6380715910091Q1787.3541043332457 541.2820258073999 1787.4169359421176 540.71654132755Q1787.5007114206142 540.1720007173242 1787.793925595351 538.7059298436393L1787.793925595351 538.7059298436393Q1788.087139770088 537.2189151003302 1788.6735681195619 535.061696529051Q1789.2599964690357 532.8835340881476 1789.7835932096377 531.7106773891996L1789.7835932096377 531.7106773891996Q1790.432853167984 530.4540452117553 1791.9826995201652 529.3440201216797L1791.9826995201652 529.3440201216797Q1793.2393316976095 528.3177705101002 1799.5643803240787 526.0348887210764Q1805.9103728201721 523.7520069320527 1817.9112101147648 523.7520069320527L1817.9112101147648 523.7520069320527Q1850.9606363815483 523.7520069320527 1850.9606363815483 555.9217906746253L1850.9606363815483 555.9217906746253L1850.9606363815483 597.600091226526Q1850.9606363815483 599.0033304913388 1850.1857132054574 600.0086362332943Q1849.410790029367 600.9929981056255 1847.5886733720727 600.9929981056255L1847.5886733720727 600.9929981056255L1836.5303102105636 600.9929981056255Q1835.3574535116159 600.9929981056255 1834.4359232481565 600.6578961916405Q1833.5143929846977 600.3227942776552 1832.6975820693588 599.3803201445721L1832.6975820693588 599.3803201445721L1828.1318184913112 593.4741489105841L1827.6291656203334 593.4741489105841Q1824.236258741234 598.416902141865 1818.5395262034867 600.6160084523922Q1812.8218497961157 602.8360586325437 1805.3867760795702 602.8360586325437ZM1813.4920536240857 585.7458610193021L1813.4920536240857 585.7458610193021Q1820.2569235126607 585.7458610193021 1823.7336058702563 582.2901225313303Q1827.189344358228 578.8343840433588 1828.1318184913112 575.1482629895222L1828.1318184913112 575.1482629895222L1828.1318184913112 566.9801538361347Q1817.9112101147648 566.9801538361347 1812.7799620568671 568.5509440579401Q1807.6696578685942 570.1426781493694 1805.9732044290445 572.6768863738819Q1804.2767509894948 575.2320384680186 1804.2767509894948 578.1641802153886L1804.2767509894948 578.1641802153886Q1804.2767509894948 582.4367296186988 1806.9366224317514 584.0912953190004Q1809.5964938740085 585.7458610193021 1813.4920536240857 585.7458610193021ZM1897.4979146862333 602.8360586325437L1897.4979146862333 602.8360586325437Q1887.7171275717924 602.8360586325437 1880.8265944654731 598.0189686190074Q1873.9360613591539 593.1809347358471 1870.3756035230617 584.6777236684745Q1866.7942018173458 576.1745126011017 1866.7942018173458 565.0533178307203L1866.7942018173458 565.0533178307203Q1866.7942018173458 550.4135529634948 1871.9882814841153 541.3239135466481Q1877.1823611508848 532.2133302601774 1886.648990220965 527.9407808568669Q1896.0946754214206 523.6891753231805 1908.9960991098483 523.6891753231805L1908.9960991098483 523.6891753231805Q1913.415255600527 523.6891753231805 1916.3055096086487 524.128996585286Q1919.2167074863946 524.5688178473915 1920.473339663839 524.9248636310008L1920.473339663839 524.9248636310008L1920.473339663839 497.467450553844Q1920.473339663839 495.7081655054221 1921.2063751006817 494.7447475027148L1921.2063751006817 494.7447475027148Q1924.3060678050438 490.7025806652692 1930.2750706479037 485.9902099998533L1930.2750706479037 485.9902099998533Q1931.3013202594834 485.23623069338674 1932.1181311748223 485.23623069338674L1932.1181311748223 485.23623069338674Q1933.0606053079055 485.23623069338674 1933.9402478321163 485.9902099998533L1933.9402478321163 485.9902099998533Q1937.123716014975 488.4196988762455 1939.2809345862547 490.5559735779007Q1941.459097027158 492.6922482795559 1943.0089433793391 494.7447475027148L1943.0089433793391 494.7447475027148Q1943.7419788161815 495.7081655054221 1943.7419788161815 497.467450553844L1943.7419788161815 497.467450553844L1943.7419788161815 597.600091226526Q1943.7419788161815 599.0033304913388 1942.778560813474 600.0086362332943Q1941.836086680391 600.9929981056255 1940.349071937082 600.9929981056255L1940.349071937082 600.9929981056255L1929.374484254069 600.9929981056255Q1928.201627555121 600.9929981056255 1927.280097291662 600.6578961916405Q1926.3585670282027 600.3227942776552 1925.562699982488 599.3803201445721L1925.562699982488 599.3803201445721L1920.9969364044405 593.4741489105841L1920.473339663839 593.4741489105841Q1919.5099216611316 594.9611636538932 1917.0594889151153 597.2021577036687Q1914.5881122994751 599.4431517534442 1909.9176293733076 601.1396051929939Q1905.2262025775153 602.8360586325437 1897.4979146862333 602.8360586325437ZM1904.6397742280415 583.98657597088L1904.6397742280415 583.98657597088Q1911.2789808988719 583.98657597088 1915.0698213008286 581.4733116159916Q1918.8606617027858 578.9809911307273 1920.473339663839 575.1482629895222L1920.473339663839 575.1482629895222L1920.473339663839 544.2979430332662Q1919.3004829648908 543.5649075964236 1916.5777799137618 542.5386579848441Q1913.8550768626328 541.4914645036406 1908.9123236313521 541.4914645036406L1908.9123236313521 541.4914645036406Q1899.780796475257 541.4914645036406 1895.2150328972093 547.4604673465008Q1890.6492693191622 553.4294701893609 1890.6492693191622 563.5244153481631L1890.6492693191622 563.5244153481631Q1890.6492693191622 573.9754062905743 1894.4819974603674 578.9809911307273Q1898.3147256015718 583.98657597088 1904.6397742280415 583.98657597088ZM1999.7668300605706 602.8360586325437L1999.7668300605706 602.8360586325437Q1981.210561573644 602.8360586325437 1970.4035248476234 592.9714960396066Q1959.575544251979 583.1069334466692 1959.575544251979 563.5872469570352L1959.575544251979 563.5872469570352Q1959.575544251979 543.5649075964236 1970.8014583704808 533.6584572642382Q1982.027372488983 523.7520069320527 2000.814023541774 523.7520069320527L2000.814023541774 523.7520069320527Q2018.9095268969713 523.7520069320527 2029.8212829711124 533.5118501768698Q2040.7120951756287 543.2716934216867 2040.7120951756287 562.2677831707188L2040.7120951756287 562.2677831707188Q2040.7120951756287 582.0597399654657 2029.8212829711124 592.4478992990048Q2018.9095268969713 602.8360586325437 1999.7668300605706 602.8360586325437ZM2000.5208093670371 585.0128255824595L2000.5208093670371 585.0128255824595Q2008.6051430419284 585.0128255824595 2012.7310853578701 579.9653530030585Q2016.8570276738124 574.9178804236576 2016.8570276738124 562.7076044328243L2016.8570276738124 562.7076044328243Q2016.8570276738124 551.062812921841 2012.689197618622 546.329498386801Q2008.542311433056 541.575239982137 2000.3742022796687 541.575239982137L2000.3742022796687 541.575239982137Q1992.478363431394 541.575239982137 1987.954487592595 546.6855441704101Q1983.4306117537953 551.8167922283076 1983.4306117537953 563.2940327822982L1983.4306117537953 563.2940327822982Q1983.4306117537953 575.2948700768909 1987.745048896354 580.1538478296752Q1992.0385421692886 585.0128255824595 2000.5208093670371 585.0128255824595ZM2079.8142997637688 534.1401662655918L2079.8142997637688 539.5855723678502L2080.1075139385066 539.5855723678502Q2085.6366955192607 524.2756036726546 2099.9832462117492 524.2756036726546L2099.9832462117492 524.2756036726546Q2101.826306738668 524.2756036726546 2102.9991634376156 524.4640984992711Q2104.192964006187 524.6316494562637 2104.6327852682925 524.7782565436322L2104.6327852682925 524.7782565436322Q2105.721866488744 525.1552461968655 2105.721866488744 526.4747099831819L2105.721866488744 526.4747099831819L2105.721866488744 544.2141675547698Q2105.721866488744 546.4970493437936 2103.0829389161117 545.4707997322141L2103.0829389161117 545.4707997322141Q2102.203296391901 545.1147539486049 2100.5487306915993 544.6958765561235Q2098.873221121674 544.2979430332662 2095.9410793743036 544.2979430332662L2095.9410793743036 544.2979430332662Q2088.35939857039 544.2979430332662 2084.08684916708 549.8480684836449Q2079.8142997637688 555.4191378036476 2079.8142997637688 564.990486221848L2079.8142997637688 564.990486221848L2079.8142997637688 597.0974383555483Q2079.8142997637688 599.2965446660758 2078.8927695003104 600.1552433206627Q2077.971239236851 600.9929981056255 2075.772132926323 600.9929981056255L2075.772132926323 600.9929981056255L2060.5878274488723 600.9929981056255Q2058.3887211383444 600.9929981056255 2057.467190874886 600.1552433206627Q2056.5456606114267 599.2965446660758 2056.5456606114267 597.0974383555483L2056.5456606114267 597.0974383555483L2056.5456606114267 535.396798443036Q2056.5456606114267 533.61656952499 2057.278696048269 532.6531515222828L2057.278696048269 532.6531515222828Q2058.82854240045 530.6006522991238 2061.006704841354 528.4643775974687Q2063.1639234126333 526.3281028958135 2066.347391595492 523.8986140194213L2066.347391595492 523.8986140194213Q2066.9338199449658 523.4587927573157 2067.5202482944396 523.3121856699472Q2068.1066766439135 523.1655785825787 2068.546497906019 523.1655785825787L2068.546497906019 523.1655785825787Q2069.572747517598 523.1655785825787 2070.5989971291774 523.8986140194213L2070.5989971291774 523.8986140194213Q2076.7146070594063 528.6947601633335 2079.1440959357988 532.0667231728089L2079.1440959357988 532.0667231728089Q2079.8142997637688 532.9673095666438 2079.8142997637688 534.1401662655918L2079.8142997637688 534.1401662655918ZM2136.2161406613914 602.8360586325437L2136.2161406613914 602.8360586325437Q2125.388160065747 602.8360586325437 2119.0212237000296 596.7623364415633Q2112.6542873343124 590.6886142505828 2112.6542873343124 580.0072407423067L2112.6542873343124 580.0072407423067Q2112.6542873343124 574.478059161552 2114.685842687847 569.7447446265121Q2116.696454171758 564.990486221848 2121.743926751159 561.3462529072597Q2126.79139933056 557.7020195926714 2135.881038747407 555.4819694125199Q2144.9706781642526 553.2828631019925 2159.1077901605004 552.9058734487592L2159.1077901605004 552.9058734487592Q2159.1077901605004 546.2038351690566 2155.7567710206495 543.2716934216867Q2152.4057518807986 540.3186078046926 2145.703713601096 540.3186078046926L2145.703713601096 540.3186078046926Q2139.671879149363 540.3186078046926 2135.8391510081583 542.3920508974757Q2132.0064228669535 544.4445501206346 2131.0639487338703 545.1775855574771L2131.0639487338703 545.1775855574771Q2130.03769912229 546.057228081688 2128.5506843789817 545.8477893854474L2128.5506843789817 545.8477893854474Q2126.5610167646946 545.5545752107104 2124.320022714919 544.8215397738679Q2122.0790286651436 544.0675604674013 2119.5029327013826 543.1250863343182L2119.5029327013826 543.1250863343182Q2119.1259430481496 542.9784792469497 2118.686121786044 542.6433773329645Q2118.2463005239388 542.3082754189794 2118.1834689150664 541.6380715910091L2118.1834689150664 541.6380715910091Q2118.1834689150664 541.2820258073999 2118.2463005239388 540.71654132755Q2118.330076002435 540.1720007173242 2118.623290177172 538.7059298436393L2118.623290177172 538.7059298436393Q2118.9165043519088 537.2189151003302 2119.5029327013826 535.061696529051Q2120.0893610508565 532.8835340881476 2120.612957791459 531.7106773891996L2120.612957791459 531.7106773891996Q2121.262217749805 530.4540452117553 2122.812064101986 529.3440201216797L2122.812064101986 529.3440201216797Q2124.0686962794307 528.3177705101002 2130.3937449058994 526.0348887210764Q2136.718793532369 523.7520069320527 2148.719630826962 523.7520069320527L2148.719630826962 523.7520069320527Q2181.7900009633695 523.7520069320527 2181.7900009633695 555.9217906746253L2181.7900009633695 555.9217906746253L2181.7900009633695 597.600091226526Q2181.7900009633695 599.0033304913388 2181.0150777872786 600.0086362332943Q2180.240154611188 600.9929981056255 2178.39709408427 600.9929981056255L2178.39709408427 600.9929981056255L2167.359674792385 600.9929981056255Q2166.186818093437 600.9929981056255 2165.2652878299778 600.6578961916405Q2164.3437575665184 600.3227942776552 2163.52694665118 599.3803201445721L2163.52694665118 599.3803201445721L2158.961183073133 593.4741489105841L2158.458530202155 593.4741489105841Q2155.0656233230548 598.416902141865 2149.3479469156837 600.6160084523922Q2143.6512143779364 602.8360586325437 2136.2161406613914 602.8360586325437ZM2144.3214182059064 585.7458610193021L2144.3214182059064 585.7458610193021Q2151.0862880944815 585.7458610193021 2154.542026582453 582.2901225313303Q2157.997765070425 578.8343840433588 2158.961183073133 575.1482629895222L2158.961183073133 575.1482629895222L2158.961183073133 566.9801538361347Q2148.719630826962 566.9801538361347 2143.609326638689 568.5509440579401Q2138.4990224504154 570.1426781493694 2136.802569010865 572.6768863738819Q2135.106115571316 575.2320384680186 2135.106115571316 578.1641802153886L2135.106115571316 578.1641802153886Q2135.106115571316 582.4367296186988 2137.765987013573 584.0912953190004Q2140.4049145862055 585.7458610193021 2144.3214182059064 585.7458610193021ZM2222.651490599931 602.8360586325437L2222.651490599931 602.8360586325437Q2214.7765956212806 602.8360586325437 2209.582515954511 601.5165948462272Q2204.3884362877416 600.1761871902868 2201.2677997137553 598.3121827937446Q2198.1262192701442 596.4272345275781 2196.3669342217227 594.8773881753968L2196.3669342217227 594.8773881753968Q2195.0474704354065 593.6207559979525 2196.0737200469857 592.0918535153955L2196.0737200469857 592.0918535153955L2203.592569242027 580.9706587450139Q2205.20524720308 578.604001477494 2207.2577464262395 580.677444570277L2207.2577464262395 580.677444570277Q2209.394021127894 582.729943793436 2213.038254442483 584.6777236684745Q2216.6824877570716 586.6255035435131 2222.1488377289534 586.6255035435131L2222.1488377289534 586.6255035435131Q2227.0078154817384 586.6255035435131 2230.1284520557247 584.9709378432115Q2233.249088629711 583.3163721429098 2233.249088629711 580.1538478296752L2233.249088629711 580.1538478296752Q2233.249088629711 577.9547415191478 2231.8667932345224 576.551502254335Q2230.46355396971 575.1482629895222 2226.9240400032413 573.6821921158373Q2223.3845260367734 572.1951773725284 2217.0594774103047 569.9122955835046L2217.0594774103047 569.9122955835046Q2207.7185115579687 566.5403325740292 2202.922365414057 561.744186430117Q2198.1262192701442 556.9689841558288 2198.1262192701442 547.7536815212377L2198.1262192701442 547.7536815212377Q2198.1262192701442 539.2923581931132 2202.817646065936 533.9935591782233Q2207.488128992104 528.6947601633335 2214.818483360529 526.2233835476932Q2222.1488377289534 523.7520069320527 2230.086564316476 523.7520069320527L2230.086564316476 523.7520069320527Q2240.1815094752783 523.7520069320527 2244.2655640519724 525.6369551982191Q2248.3496186286657 527.5009595947614 2249.5224753276143 528.5481530759649L2249.5224753276143 528.5481530759649Q2250.6325004176897 529.4906272090482 2251.072321679795 530.7472593864924L2251.072321679795 530.7472593864924Q2252.035739682502 533.61656952499 2252.5593364231045 538.328940190406L2252.5593364231045 538.328940190406Q2252.8525505978414 541.0516432415352 2251.1560971582912 541.9312857657461L2251.1560971582912 541.9312857657461Q2250.2764546340804 542.4548825063479 2248.3496186286657 543.0413108558218Q2246.4437264928756 543.6277392052959 2244.516890487461 544.0675604674013Q2242.610998351671 544.5283255991309 2241.647580348964 544.5283255991309L2241.647580348964 544.5283255991309Q2241.354366174226 544.5283255991309 2241.0192642602415 544.3398307725142Q2240.7051062158807 544.1513359458977 2239.8882953005414 543.4183005090551L2239.8882953005414 543.4183005090551Q2238.9248772978344 542.4548825063479 2236.600107769562 541.1982503289037Q2234.296282110915 539.9625620210835 2230.2331714038446 539.9625620210835L2230.2331714038446 539.9625620210835Q2226.2538361752713 539.9625620210835 2223.5730208633904 541.2401380681517Q2220.8922055515095 542.5386579848441 2220.8922055515095 545.764013906951L2220.8922055515095 545.764013906951Q2220.8922055515095 549.303527873419 2224.3060563002327 551.062812921841Q2227.7408509185807 552.8430418398871 2235.615745897231 555.6285764998884L2235.615745897231 555.6285764998884Q2241.7941874363314 557.7648512015436 2246.401838753628 560.3200032956802Q2251.0094900709228 562.8542115201928 2253.5018105561876 566.9382660968865Q2256.015074911076 571.0223206735805 2256.015074911076 577.9547415191478L2256.015074911076 577.9547415191478Q2256.015074911076 586.9396615878741 2251.1142094190436 592.4060115597565Q2246.213343927011 597.893305401263 2238.589775383849 600.3646820169033Q2230.966206840688 602.8360586325437 2222.651490599931 602.8360586325437ZM2265.209433676043 587.6726970247166L2265.209433676043 587.6726970247166Q2265.209433676043 586.6255035435131 2265.879637504013 585.8715242370465Q2266.528897462359 585.0966010609559 2267.576090943563 583.7561934050154L2267.576090943563 583.7561934050154Q2269.858972732587 581.1800974412547 2272.833002219205 578.3526750420051Q2275.8070317058227 575.5252526427555 2278.843892801313 572.8653812004986L2278.843892801313 572.8653812004986Q2280.749784937103 571.3155348483174 2281.713202939811 571.3155348483174L2281.713202939811 571.3155348483174Q2282.5928454640216 571.3155348483174 2284.645344687181 572.8653812004986L2284.645344687181 572.8653812004986Q2291.054168792146 578.310787302757 2295.7665394575624 583.7561934050154L2295.7665394575624 583.7561934050154Q2296.7927890691417 585.0128255824595 2297.4629928971117 585.8296364977984Q2298.1331967250817 586.6255035435131 2298.1331967250817 587.6726970247166L2298.1331967250817 587.6726970247166Q2298.1331967250817 588.6989466362961 2297.421105157864 589.5157575516348Q2296.7299574602694 590.3116245973495 2295.70370784869 591.7148638621622L2295.70370784869 591.7148638621622Q2293.4836576685384 594.2281282170507 2290.572459790793 597.0136628770522Q2287.6612619130465 599.8201414066775 2284.645344687181 602.4590689793106L2284.645344687181 602.4590689793106Q2282.73945255139 604.0089153314916 2281.713202939811 604.0089153314916L2281.713202939811 604.0089153314916Q2280.8335604156 604.0089153314916 2278.6972857139444 602.4590689793106L2278.6972857139444 602.4590689793106Q2275.4509859222135 599.8201414066775 2272.644507392588 596.9717751378039Q2269.858972732587 594.1443527385545 2267.576090943563 591.4844812962974L2267.576090943563 591.4844812962974Q2266.528897462359 590.2487929884774 2265.879637504013 589.4738698123867Q2265.209433676043 588.6989466362961 2265.209433676043 587.6726970247166ZM2350.4090953067625 523.7520069320527L2350.4090953067625 523.7520069320527Q2359.163632809624 523.7520069320527 2363.142968038198 525.1971339361137Q2367.1223032667713 526.6213170705505 2368.1485528783505 527.4381279858892L2368.1485528783505 527.4381279858892Q2369.7612308394037 528.4643775974687 2370.661817233239 530.077055558522L2370.661817233239 530.077055558522Q2371.164470104217 530.8938664738608 2371.834673932187 532.8835340881476Q2372.483933890533 534.8732017024342 2372.7980919348947 537.2189151003302L2372.7980919348947 537.2189151003302Q2373.154137718503 539.0619756272484 2372.860923543766 539.8368988033391Q2372.567709369029 540.6118219794297 2371.0178630168484 541.7218470695054L2371.0178630168484 541.7218470695054Q2369.258577968426 542.8947037684534 2367.164191006019 543.8162340319125Q2365.048860173988 544.7377642953716 2363.729396387672 545.1147539486049L2363.729396387672 545.1147539486049Q2362.6193712975955 545.4079681233418 2362.0329429481217 545.2613610359733Q2361.446514598648 545.1147539486049 2360.4202649870685 544.3607746421383L2360.4202649870685 544.3607746421383Q2359.247408288121 543.5649075964236 2357.1111335864653 542.5596018544683Q2354.9748588848097 541.575239982137 2351.204962352477 541.575239982137L2351.204962352477 541.575239982137Q2346.4297600781892 541.575239982137 2342.1153229356305 543.9209533800329Q2337.8218296626956 546.2876106475528 2335.120070481191 550.9999813129687Q2332.43925516931 555.7123519783846 2332.43925516931 562.7704360416965L2332.43925516931 562.7704360416965Q2332.43925516931 573.3889779411004 2337.9893806196887 579.190429826968Q2343.5604499396914 585.0128255824595 2352.9014157920274 585.0128255824595L2352.9014157920274 585.0128255824595Q2357.697561935939 585.0128255824595 2360.860086249174 584.0284637101283Q2364.0226105624088 583.0231579681729 2365.8656710893265 581.9969083565934L2365.8656710893265 581.9969083565934Q2367.331741963012 581.1800974412547 2368.106665139103 581.5989748337361Q2368.881588315193 581.9969083565934 2369.3214095772983 583.0231579681729L2369.3214095772983 583.0231579681729L2374.703984070685 595.1706023501338Q2375.5207949860232 597.0974383555483 2373.824341546474 597.893305401263L2373.824341546474 597.893305401263Q2371.1016384953446 599.2965446660758 2364.8394214777472 601.0767735841218Q2358.57720446015 602.8360586325437 2349.3828456951833 602.8360586325437L2349.3828456951833 602.8360586325437Q2330.889408817129 602.8360586325437 2319.851989525243 593.0133837788546Q2308.793626363734 583.1697650555413 2308.793626363734 563.5872469570352L2308.793626363734 563.5872469570352Q2308.793626363734 551.062812921841 2313.8829866823835 542.1616683316108Q2318.972347001032 533.2605237413809 2328.313312853368 528.5062653367168Q2337.675222575328 523.7520069320527 2350.4090953067625 523.7520069320527ZM2422.853940336423 602.8360586325437L2422.853940336423 602.8360586325437Q2404.2976718494965 602.8360586325437 2393.469691253852 592.9714960396066Q2382.6626545278314 583.1069334466692 2382.6626545278314 563.5872469570352L2382.6626545278314 563.5872469570352Q2382.6626545278314 543.5649075964236 2393.8885686463336 533.6584572642382Q2405.114482764835 523.7520069320527 2423.880189948003 523.7520069320527L2423.880189948003 523.7520069320527Q2441.996637172824 523.7520069320527 2452.908393246965 533.5118501768698Q2463.7992054514816 543.2716934216867 2463.7992054514816 562.2677831707188L2463.7992054514816 562.2677831707188Q2463.7992054514816 582.0597399654657 2452.908393246965 592.4478992990048Q2441.996637172824 602.8360586325437 2422.853940336423 602.8360586325437ZM2423.5869757732653 585.0128255824595L2423.5869757732653 585.0128255824595Q2431.6922533177813 585.0128255824595 2435.818195633723 579.9653530030585Q2439.9441379496648 574.9178804236576 2439.9441379496648 562.7076044328243L2439.9441379496648 562.7076044328243Q2439.9441379496648 551.062812921841 2435.7763078944745 546.329498386801Q2431.629421708909 541.575239982137 2423.440368685897 541.575239982137L2423.440368685897 541.575239982137Q2415.5654737072464 541.575239982137 2411.0415978684478 546.6855441704101Q2406.517722029648 551.8167922283076 2406.517722029648 563.2940327822982L2406.517722029648 563.2940327822982Q2406.517722029648 575.2948700768909 2410.8112153025822 580.1538478296752Q2415.125652445141 585.0128255824595 2423.5869757732653 585.0128255824595ZM2547.0720310767865 533.323355350253L2547.0720310767865 533.323355350253Q2549.794734127916 530.0142239496499 2555.512410535287 526.8935873756634Q2561.2091430730343 523.7520069320527 2571.5973024065734 523.7520069320527L2571.5973024065734 523.7520069320527Q2586.320842752295 523.7520069320527 2592.8762739446292 531.3336877359664Q2599.4317051369635 538.9153685398799 2599.4317051369635 554.0996740173312L2599.4317051369635 554.0996740173312L2599.4317051369635 597.0974383555483Q2599.4317051369635 599.2965446660758 2598.510174873504 600.1552433206627Q2597.588644610045 600.9929981056255 2595.368594429894 600.9929981056255L2595.368594429894 600.9929981056255L2580.205232822066 600.9929981056255Q2578.006126511539 600.9929981056255 2577.08459624808 600.1552433206627Q2576.1630659846205 599.2965446660758 2576.1630659846205 597.0974383555483L2576.1630659846205 597.0974383555483L2576.1630659846205 557.9114582889121Q2576.1630659846205 549.6805175266522 2573.147148758754 546.0991158209363Q2570.110287663264 542.5386579848441 2564.078453211532 542.5386579848441L2564.078453211532 542.5386579848441Q2558.6958787181457 542.5386579848441 2555.5752421441593 544.9262591219883Q2552.454605570173 547.3138602591323 2551.114197914232 551.3560270965779L2551.114197914232 551.3560270965779L2551.114197914232 597.0974383555483Q2551.114197914232 599.2965446660758 2550.192667650773 600.1552433206627Q2549.2711373873144 600.9929981056255 2547.0720310767865 600.9929981056255L2547.0720310767865 600.9929981056255L2531.9086694689595 600.9929981056255Q2529.688619288808 600.9929981056255 2528.7670890253485 600.1552433206627Q2527.84555876189 599.2965446660758 2527.84555876189 597.0974383555483L2527.84555876189 597.0974383555483L2527.84555876189 557.9114582889121Q2527.84555876189 549.889956222893 2524.5364273612868 546.2038351690566Q2521.2272959606835 542.5386579848441 2515.844721467297 542.5386579848441L2515.844721467297 542.5386579848441Q2510.776305018272 542.5386579848441 2507.6766123139096 545.0309784701086Q2504.597863479171 547.5442428249971 2502.9014100396216 551.3560270965779L2502.9014100396216 551.3560270965779L2502.9014100396216 597.0974383555483Q2502.9014100396216 599.2965446660758 2501.9798797761623 600.1552433206627Q2501.058349512703 600.9929981056255 2498.838299332552 600.9929981056255L2498.838299332552 600.9929981056255L2483.6749377247243 600.9929981056255Q2481.4758314141973 600.9929981056255 2480.554301150738 600.1552433206627Q2479.6327708872786 599.2965446660758 2479.6327708872786 597.0974383555483L2479.6327708872786 597.0974383555483L2479.6327708872786 535.396798443036Q2479.6327708872786 533.61656952499 2480.365806324121 532.6531515222828L2480.365806324121 532.6531515222828Q2481.9156526763027 530.6006522991238 2484.072871247582 528.4643775974687Q2486.251033688485 526.3281028958135 2489.41355800172 523.8986140194213L2489.41355800172 523.8986140194213Q2490.376976004427 523.1655785825787 2491.256618528638 523.1655785825787L2491.256618528638 523.1655785825787Q2492.073429443977 523.1655785825787 2493.0996790555564 523.8986140194213L2493.0996790555564 523.8986140194213Q2496.199371759919 526.3281028958135 2498.398478070446 528.5481530759649Q2500.6185282505976 530.7472593864924 2502.3149816901478 533.1139166540124L2502.3149816901478 533.1139166540124L2502.671027473757 533.1139166540124Q2505.1842918286457 529.9304484711536 2510.483090843535 526.8516996364152Q2515.7818898584255 523.7520069320527 2525.646452451362 523.7520069320527L2525.646452451362 523.7520069320527Q2535.0711937821943 523.7520069320527 2539.6369573602415 526.5794293313022Q2544.2027209382886 529.4277956001758 2547.0720310767865 533.323355350253Z " fill="#3b657a" transform="matrix(0.33661203378085763,0,0,0.33661203378085763,0,111.4177208531244)"/></g></svg>